<?xml version="1.0" encoding="UTF-8"?>
<svg width="120px" height="120px" viewBox="0 0 120 120" version="1.1" xmlns="http://www.w3.org/2000/svg" xmlns:xlink="http://www.w3.org/1999/xlink">
    <!-- Generator: Sketch 42 (36781) - http://www.bohemiancoding.com/sketch -->
    <title>Group 4</title>
    <desc>Created with Sketch.</desc>
    <defs></defs>
    <g id="Page-1" stroke="none" stroke-width="1" fill="none" fill-rule="evenodd">
        <g id="Landing-Parallax-Option" transform="translate(-1280.000000, -440.000000)" fill="#32C3D7">
            <g id="Group-4" transform="translate(1280.000000, 440.000000)">
                <g id="Group-2-Copy">
                    <path d="M79.1249396,116.875547 C79.1249396,116.875547 79.3276293,116.809672 79.7152734,116.682988 C80.0978502,116.553771 80.655247,116.335876 81.3621273,116.072374 C81.7168344,115.93809 82.1070121,115.78607 82.5351941,115.626449 C82.9532416,115.446558 83.4042262,115.251466 83.8906816,115.041171 C84.3720696,114.828343 84.891462,114.615515 85.4260562,114.362148 C85.9581167,114.10118 86.5155134,113.82501 87.0957127,113.538706 C91.7550426,111.248269 97.5494349,107.313482 102.431723,102.428569 C107.316546,97.548723 111.25126,91.7516892 113.53912,87.0948063 C113.825419,86.5145962 114.104117,85.9546554 114.362547,85.4251187 C114.615909,84.8905146 114.831267,84.3711126 115.044091,83.8871819 C115.251848,83.4032512 115.446937,82.9497245 115.626824,82.5316692 C115.791509,82.1034792 115.935926,81.7132942 116.072741,81.3585806 C116.338772,80.651687 116.551596,80.0942799 116.683344,79.711696 C116.810025,79.3265784 116.875899,79.1238849 116.875899,79.1238849 C116.875899,79.1238849 117.070988,78.5234054 117.430762,77.4009902 C117.752532,76.2684403 118.249122,74.6088874 118.689972,72.4552691 C118.945868,71.3860609 119.118154,70.177501 119.343647,68.8751953 C119.444992,68.2189751 119.513399,67.5298173 119.60461,66.8229237 C119.645148,66.4682101 119.688219,66.1058955 119.731291,65.7385136 C119.759161,65.3711316 119.78703,64.993615 119.8149,64.6135647 C120.050527,61.5630277 120.098666,58.0995027 119.736358,54.3471395 C119.067482,46.8550814 116.693479,38.172199 111.963207,29.9833821 C109.622141,25.8864399 106.64767,21.9769892 103.237415,18.4146512 C101.539889,16.6233475 99.6827441,14.9587272 97.7571918,13.362516 C95.7936352,11.8119108 93.7718053,10.3069116 91.618227,9.00713961 C83.0824563,3.64589682 73.1506602,0.681504536 63.7610591,0.12409744 C54.3435881,-0.49665137 45.5240518,1.27691666 38.5008531,3.98034107 C34.974052,5.33332011 31.8830339,6.90926199 29.2455339,8.47000186 C27.9381853,9.27317481 26.7195133,10.0332754 25.6477915,10.8111117 C24.5456661,11.5534766 23.5955581,12.3110435 22.7239923,12.987533 C21.0112642,14.3633151 19.7165836,15.5034659 18.8779549,16.3243746 C18.0241245,17.1376822 17.5706062,17.5709395 17.5706062,17.5709395 L19.2250611,19.2254251 C19.2250611,19.2254251 19.6633776,18.8099035 20.4817373,18.0295335 C21.2899625,17.2415626 22.5365043,16.1444841 24.1808246,14.8193754 C25.0194533,14.1732899 25.9315571,13.4410597 26.9906108,12.7316325 C28.0217948,11.9816666 29.1923279,11.25197 30.4439369,10.4792011 C32.980092,8.97926925 35.9520299,7.46413542 39.3369482,6.16689709 C46.0865158,3.56735309 54.5640132,1.86219411 63.614109,2.46267357 C72.6388687,2.99727765 82.1804871,5.84512117 90.3818197,10.9960695 C92.4543221,12.2451681 94.3925425,13.6918929 96.2800905,15.1791564 C98.1321678,16.7170932 99.9183709,18.3158381 101.550023,20.0361991 C104.831063,23.4642527 107.686454,27.2166159 109.933777,31.1564706 C114.481627,39.020978 116.761886,47.3643488 117.405426,54.565035 C117.752532,58.1704454 117.706927,61.5047533 117.481435,64.4362079 C117.453565,64.8010562 117.425695,65.1633708 117.397825,65.5155507 C117.357287,65.8702643 117.316749,66.2173769 117.278745,66.5594222 C117.190068,67.2409791 117.126728,67.8997329 117.027917,68.5280827 C116.810025,69.7822487 116.647873,70.9426689 116.399579,71.9688047 C115.976464,74.0438793 115.495076,75.6350232 115.188507,76.721967 C114.841401,77.8013098 114.656447,78.3764526 114.656447,78.3764526 C114.656447,78.3764526 114.593106,78.5740788 114.471493,78.9439944 C114.344812,79.31391 114.137055,79.8459804 113.886226,80.5250036 C113.754478,80.8670489 113.612595,81.2445655 113.458044,81.6550198 C113.28069,82.0578731 113.095736,82.4911305 112.893046,82.9547918 C112.690357,83.4209868 112.485133,83.9175859 112.241906,84.4319206 C111.993611,84.941188 111.725047,85.4783257 111.451416,86.0382665 C109.254766,90.5127253 105.469536,96.0791952 100.774735,100.774083 C96.0799344,105.468971 90.5135681,109.249205 86.0391926,111.448429 C85.4817958,111.727133 84.9446681,111.990634 84.4354102,112.241467 C83.921085,112.4847 83.4219616,112.689927 82.9608425,112.895154 C82.4946561,113.095314 82.0588732,113.282805 81.6560274,113.455095 C81.2455808,113.612182 80.8706048,113.754067 80.5310995,113.880751 C79.8495553,114.139185 79.3149612,114.346946 78.9475861,114.471096 C78.5776774,114.592712 78.3800549,114.656054 78.3800549,114.656054 C78.3800549,114.656054 77.8049228,114.841011 76.7256001,115.188124 C76.1884723,115.362947 75.5069282,115.530169 74.7189719,115.748065 C73.928482,115.976095 73.0062438,116.178788 71.9725262,116.401751 C70.9438759,116.647517 69.7860109,116.809672 68.5318683,117.027567 C67.9035302,117.128914 67.2447886,117.192256 66.5632444,117.278401 C66.2186719,117.318939 65.8740994,117.356944 65.5193924,117.400017 C65.1646854,117.425353 64.8049111,117.453224 64.4350024,117.47856 C61.506136,117.706591 58.1744237,117.75473 54.5690804,117.407618 C47.3685282,116.761532 39.0227791,114.483764 31.1558845,109.935829 C27.2211704,107.690998 23.4663434,104.830487 20.0408872,101.549386 C18.3180246,99.9202369 16.7193094,98.1340005 15.1839348,96.2844224 C13.6941654,94.3943056 12.2474676,92.4535154 10.9958586,90.3835082 C5.84500612,82.1845566 2.9972156,72.6402269 2.46262147,63.6152993 C1.86468681,54.5625013 3.57234767,46.0873798 6.16930967,39.3351529 C7.46652386,35.9527053 8.97909587,32.9781784 10.4815334,30.4445098 C11.2568216,29.1928775 11.9814373,28.0223226 12.7313892,26.9885858 C13.4408033,25.9269786 14.1755535,25.0173916 14.8190933,24.1812809 C16.146711,22.53693 17.2412354,21.2852977 18.0317253,20.4795911 C18.8095471,19.6612161 19.2250611,19.2254251 19.2250611,19.2254251 L17.5706062,17.5709395 C17.5706062,17.5709395 17.137357,18.0219325 16.3265981,18.8732452 C15.5082384,19.7144232 14.3630415,21.0116615 12.987285,22.7244215 C12.3158753,23.5934698 11.5532553,24.5461292 10.8109042,25.6457414 C10.0330824,26.7200169 9.2780632,27.9361778 8.46983795,29.2435508 C6.90912714,31.8810999 5.33321459,34.9747092 3.98279435,38.4990423 C1.27688663,45.5249054 -0.496648391,54.3420721 0.124088867,63.7597184 C0.681485588,73.1494943 3.6458227,83.0814752 9.0069657,91.6174048 C10.3092471,93.7735568 11.8167519,95.7954244 13.3647946,97.7590175 C14.9635098,99.6846057 16.6255654,101.539251 18.4168358,103.239343 C21.9791076,106.649661 25.8859519,109.624188 29.9853514,111.962764 C38.1740159,116.695657 46.8592703,119.067171 54.3486553,119.738593 C58.1009487,120.098374 61.5644093,120.050234 64.6148895,119.814603 C64.9974663,119.784199 65.3724423,119.758862 65.742351,119.730992 C66.1097262,119.687919 66.472034,119.647381 66.826741,119.601775 C67.536155,119.513096 68.2202328,119.447221 68.8764408,119.34334 C70.1837895,119.117844 71.3872597,118.945554 72.4564479,118.689654 C73.533237,118.45909 74.4934796,118.251329 75.3118393,118.013164 C76.1352663,117.782601 76.8446803,117.612845 77.402077,117.430421 C78.5270049,117.068106 79.1249396,116.875547 79.1249396,116.875547" id="Combined-Shape"></path>
                    <path d="M49.1052365,100.527191 C49.1052365,100.527191 51.7793365,101.233792 54.5283413,101.560876 C54.8729032,101.600826 55.2099746,101.653259 55.5495429,101.688215 C55.8916079,101.713183 56.2261825,101.735654 56.548273,101.760622 C57.1949508,101.818049 57.7966857,101.857999 58.3185222,101.857999 C58.8403587,101.870483 59.2723095,101.885464 59.5744254,101.892954 C59.8790381,101.900445 60.0538159,101.885464 60.0538159,101.885464 L60.1337143,111.992613 C60.1337143,111.992613 59.9189873,112.005097 59.5444635,111.997607 C59.1674429,111.987619 58.6306254,111.975135 57.9889413,111.957657 C57.3422635,111.955161 56.5932159,111.910218 55.7917349,111.83781 C55.3922429,111.807848 54.975273,111.775389 54.5533095,111.74293 C54.1338429,111.705478 53.7093825,111.640561 53.2824254,111.590624 C52.4285111,111.488254 51.5770937,111.375897 50.7880968,111.218597 C49.9941063,111.073781 49.2525492,110.95643 48.6283429,110.796634 C47.9991429,110.654315 47.4773063,110.529473 47.110273,110.447078 C46.7432397,110.36718 46.5385,110.302262 46.5385,110.302262 L49.1052365,100.527191 Z M96.9863578,78.7970696 C96.9863578,78.7970696 97.2060784,78.4075648 97.5381562,77.6385426 C97.7004498,77.2565283 97.9351514,76.7946156 98.1598657,76.2328299 C98.3720959,75.6635537 98.6517403,75.0243664 98.9089133,74.2878029 C99.4232594,72.814676 99.9875419,71.0044775 100.439467,68.8771823 C100.871418,66.7473902 101.20849,64.305495 101.295878,61.6214077 C101.480643,56.2532331 100.591774,49.9287744 97.9226673,43.7815902 C95.2710387,37.6493871 90.8666387,31.7294141 85.1738768,27.3774474 C82.3674451,25.1602664 79.2289356,23.3925141 76.0155213,21.9843045 C72.7796356,20.618541 69.4288959,19.689722 66.1255959,19.160395 C62.8173022,18.6610299 59.5414673,18.5786347 56.4778625,18.8108395 C53.411761,19.045541 50.5528959,19.6048299 47.9886562,20.3588712 C42.8451959,21.8669537 38.9176895,24.1115998 36.3384689,25.8593775 C35.7067721,26.3187934 35.1250117,26.7082982 34.6431244,27.0778283 C34.1662308,27.454849 33.7592483,27.7719458 33.4296673,28.0316156 C32.7829895,28.5659363 32.4509117,28.8655553 32.4509117,28.8655553 L25.8243371,21.2352569 C25.8243371,21.2352569 25.9292038,21.1453712 26.1339435,20.9705934 C26.3386832,20.7983125 26.6283149,20.5236617 27.0377943,20.2015712 C27.4472737,19.8794807 27.9541292,19.4824855 28.5458768,19.018076 C29.1451149,18.5611569 29.8617038,18.074276 30.6507006,17.5049998 C33.8541276,15.3327617 38.7404149,12.5413109 45.1447721,10.6612014 C51.5191673,8.7686077 59.4191229,7.91719024 67.6661371,9.17309342 C71.7759117,9.82476485 75.9506038,10.9832918 79.9779832,12.6861268 C83.9803943,14.4339045 87.8729451,16.6410982 91.363507,19.3901029 C98.4245292,24.7957299 103.902564,32.1314029 107.198374,39.766695 C110.524145,47.4244585 111.625245,55.3044395 111.395537,61.9385045 C111.29067,65.2692696 110.873701,68.3004156 110.329393,70.9495474 C109.767607,73.5986791 109.068496,75.8558093 108.424315,77.690976 C108.107218,78.6073109 107.760159,79.4037982 107.492999,80.1079029 C107.213355,80.8095109 106.923723,81.3837807 106.716486,81.8631712 C106.299517,82.8144617 106.029859,83.3013426 106.029859,83.3013426 L96.9863578,78.7970696 Z M87.3720819,91.366588 C87.3720819,91.366588 87.5044137,91.2517341 87.7316248,91.051988 C87.9463517,90.8447515 88.2609517,90.5451325 88.6379724,90.1855896 C89.0199867,89.8410277 89.4369565,89.3990896 89.8838883,88.9246928 C90.1086025,88.692488 90.3383105,88.4477991 90.5705152,88.2006134 C90.7952295,87.9434404 91.0199438,87.6812737 91.2471549,87.4191071 C91.7115644,86.9072579 92.1385216,86.3629499 92.53302,85.8486039 C92.9449962,85.3492388 93.3020422,84.859861 93.5941708,84.4304071 C94.2083898,83.5939706 94.5729263,83.0022229 94.5729263,83.0022229 L103.029674,88.5326912 C103.029674,88.5326912 102.580245,89.2617642 101.818714,90.3029404 C101.45168,90.8322674 101.012239,91.4414928 100.502887,92.0656991 C100.011012,92.7048864 99.4791883,93.3790293 98.9024216,94.0182166 C98.6227771,94.3403071 98.3431327,94.6648944 98.0634883,94.984488 C97.7738565,95.2915975 97.4867216,95.5937134 97.209574,95.8883388 C96.6602724,96.472596 96.1384359,97.0169039 95.664039,97.4513515 C95.1971327,97.8932896 94.8101248,98.2653166 94.535474,98.5249864 C94.2533327,98.7721721 94.0935359,98.9119944 94.0935359,98.9119944 L87.3720819,91.366588 Z M75.8801933,98.6423372 C75.8801933,98.6423372 76.5093933,98.3576991 77.4531933,97.930742 C78.387006,97.4838102 79.6204378,96.8596039 80.8089267,96.1505055 C81.9974156,95.4513944 83.1509489,94.6873658 83.9873854,94.0731468 C84.4143425,93.7785214 84.7638981,93.5213483 84.9961029,93.3290928 C85.2333013,93.1393341 85.3681298,93.0344674 85.3681298,93.0344674 L91.6076965,100.981863 C91.6076965,100.981863 91.4379124,101.116691 91.143287,101.351393 C90.8511584,101.588591 90.4192076,101.908185 89.8923775,102.275218 C88.8512013,103.03675 87.4205203,103.98804 85.9399029,104.856936 C84.464279,105.738315 82.9287314,106.512331 81.7677076,107.069123 C80.5941997,107.600947 79.8101965,107.952999 79.8101965,107.952999 L75.8801933,98.6423372 Z M62.6597525,101.7781 C62.6597525,101.7781 65.4312287,101.623297 68.1377875,101.044034 C68.8119303,100.88923 69.4810795,100.734427 70.1102795,100.587115 C70.7344859,100.412337 71.3162462,100.247546 71.8131144,100.105227 C72.3124795,99.9679018 72.7144684,99.8056082 73.0016033,99.7182193 C73.2887383,99.6208431 73.4510319,99.5659129 73.4510319,99.5659129 L76.7842938,109.106283 C76.7842938,109.106283 76.582051,109.173697 76.2275017,109.296042 C75.8679589,109.408399 75.3685938,109.603151 74.7468843,109.775432 C74.1251748,109.95021 73.4035922,110.157446 72.6295763,110.37467 C71.8430763,110.559435 71.0066398,110.751691 70.1702033,110.943946 C66.8019859,111.663032 63.3638573,111.860281 63.3638573,111.860281 L62.6597525,101.7781 Z M36.7162386,94.9580217 C36.7162386,94.9580217 37.2955021,95.3300487 38.169391,95.8893375 C38.6188195,96.1490074 39.1431529,96.4486264 39.7049386,96.7732137 C40.2717179,97.0878137 40.8959243,97.384936 41.5051497,97.7045296 C43.9795037,98.9404582 46.6186481,99.7793915 46.6186481,99.7793915 L43.4376925,109.372195 C43.4376925,109.372195 40.156864,108.326025 37.0757814,106.78798 C36.3142497,106.393482 35.5402338,106.016461 34.836129,105.626957 C34.1370179,105.224968 33.4853465,104.852941 32.9260576,104.53085 C31.8424354,103.836733 31.1208529,103.372323 31.1208529,103.372323 L36.7162386,94.9580217 Z M26.7606467,85.6705802 L27.0552721,86.0451041 C27.2475276,86.2773088 27.4922165,86.6368517 27.8442689,87.0213628 C28.1838371,87.4108675 28.5808324,87.8677866 29.0052927,88.3571644 C29.4597149,88.8240707 29.9291181,89.3334231 30.415999,89.8228009 C30.9203578,90.2947009 31.4097356,90.7840787 31.8941197,91.2185263 C32.3834975,91.6429866 32.8404165,92.0399818 33.2324181,92.3820469 C34.04888,93.0187374 34.5931879,93.4481914 34.5931879,93.4481914 L28.4809594,101.500453 C28.4809594,101.500453 27.8093133,100.966133 26.7956022,100.172142 C26.3087213,99.7501787 25.7419419,99.2558072 25.1327165,98.7289771 C24.5334784,98.1921596 23.9217562,97.585431 23.2975498,96.9986771 C22.6908213,96.3894517 22.109061,95.7577548 21.5497721,95.1809882 C21.0104578,94.5817501 20.5260737,94.0049834 20.1041102,93.5230961 C19.6721594,93.0412088 19.362553,92.5992707 19.1228578,92.3121358 C18.8931498,92.0150136 18.7608181,91.8477263 18.7608181,91.8477263 L26.7606467,85.6705802 Z M20.3308219,73.701049 C20.3308219,73.701049 20.3832552,73.8633426 20.4831283,74.1504775 C20.5680203,74.4401093 20.7228235,74.8420982 20.9175759,75.3214887 C21.2821124,76.2902569 21.8364076,77.5586442 22.4506267,78.792076 C23.0598521,80.0329982 23.7514727,81.2289775 24.2932838,82.1128537 C24.8525727,82.9867426 25.2245997,83.5660061 25.2245997,83.5660061 L16.855241,89.2313029 C16.855241,89.2313029 16.3908314,88.5097204 15.6942171,87.4260982 C15.0225711,86.327495 14.1611663,84.8368902 13.4021314,83.296349 C12.6381029,81.7583045 11.9539727,80.1828077 11.4970537,78.9743442 C11.2548616,78.3776029 11.062606,77.875741 10.9527457,77.5161982 C10.8304013,77.161649 10.762987,76.9594061 10.762987,76.9594061 L20.3308219,73.701049 Z M18.1046524,60.2828596 C18.1046524,60.2828596 18.124627,60.9769771 18.1520921,62.0156564 C18.1446016,62.5374929 18.2269968,63.1392279 18.2644492,63.7859056 C18.2969079,64.4350802 18.3942841,65.1192104 18.481673,65.8058374 C18.554081,66.4924644 18.681419,67.1716009 18.7987698,67.8107882 C18.8561968,68.127885 18.911127,68.4374914 18.9635603,68.7296199 C19.0309746,69.0167548 19.0933952,69.2889088 19.153319,69.5410882 C19.2706698,70.0454469 19.368046,70.4649136 19.4354603,70.759539 C19.5178556,71.0491707 19.5677921,71.216458 19.5677921,71.216458 L9.81519206,73.8630929 C9.81519206,73.8630929 9.75526825,73.6558564 9.65289841,73.2963136 C9.56800635,72.9267834 9.44316508,72.4049469 9.29834921,71.7782437 C9.22344444,71.4661406 9.14604286,71.1265723 9.06364762,70.7645326 C8.99873016,70.4049898 8.92881905,70.0179818 8.85641111,69.6234834 C8.71159524,68.8319898 8.55679206,67.9880628 8.46440952,67.1316517 C8.35704603,66.2777374 8.23969524,65.4288168 8.19475238,64.624839 C8.14231905,63.8208612 8.05243333,63.0743104 8.05493016,62.4276326 C8.0199746,61.1417675 8,60.2828596 8,60.2828596 L18.1046524,60.2828596 Z" id="Combined-Shape" transform="translate(59.712362, 60.289873) scale(1, -1) translate(-59.712362, -60.289873) "></path>
                </g>
                <path d="M36.004,72 L45.006,72 C44.964,62.188 49.498,66.456 49.498,58.648 C49.498,55.634 47.532,54 45.002,54 C41.264,54 38.664,57.574 42.204,64.258 C43.366,66.456 40.966,66.976 38.386,67.572 C36.148,68.088 36,69.182 36,71.074 L36.004,72 Z M81.616,67.572 C79.036,66.976 76.636,66.454 77.798,64.258 C81.336,57.574 78.736,54 74.998,54 C72.468,54 70.502,55.634 70.502,58.648 C70.502,66.454 75.038,62.188 74.994,72 L83.996,72 L84,71.074 C84,69.182 83.852,68.088 81.616,67.572 L81.616,67.572 Z M71.994,72 L48.004,72 L48,70.754 C48,68.236 48.2,66.782 51.176,66.094 C54.544,65.316 57.864,64.622 56.266,61.676 C51.534,52.95 54.918,48 59.998,48 C64.98,48 68.45,52.766 63.73,61.678 C62.18,64.606 65.382,65.302 68.82,66.096 C71.8,66.784 71.998,68.24 71.998,70.762 L71.994,72 Z" id="Page-1"></path>
            </g>
        </g>
    </g>
</svg>