<?xml version="1.0" encoding="UTF-8"?>
<svg width="120px" height="120px" viewBox="0 0 120 120" version="1.1" xmlns="http://www.w3.org/2000/svg" xmlns:xlink="http://www.w3.org/1999/xlink">
    <!-- Generator: Sketch 42 (36781) - http://www.bohemiancoding.com/sketch -->
    <title>Group 3</title>
    <desc>Created with Sketch.</desc>
    <defs></defs>
    <g id="Page-1" stroke="none" stroke-width="1" fill="none" fill-rule="evenodd">
        <g id="Landing-Parallax-Option" transform="translate(-1280.000000, -40.000000)" fill="#32C3D7">
            <g id="Group-3" transform="translate(1280.000000, 40.000000)">
                <path d="M79.1249396,116.875547 C79.1249396,116.875547 78.5270049,117.068106 77.402077,117.430421 C76.8446803,117.612845 76.1352663,117.782601 75.3118393,118.013164 C74.4934796,118.251329 73.533237,118.45909 72.4564479,118.689654 C71.3872597,118.945554 70.1837895,119.117844 68.8764408,119.34334 C68.2202328,119.447221 67.536155,119.513096 66.826741,119.601775 C66.472034,119.647381 66.1097262,119.687919 65.742351,119.730992 C65.3724423,119.758862 64.9974663,119.784199 64.6148895,119.814603 C61.5644093,120.050234 58.1009487,120.098374 54.3486553,119.738593 C46.8592703,119.067171 38.1740159,116.695657 29.9853514,111.962764 C25.8859519,109.624188 21.9791076,106.649661 18.4168358,103.239343 C16.6255654,101.539251 14.9635098,99.6846057 13.3647946,97.7590175 C11.8167519,95.7954244 10.3092471,93.7735568 9.0069657,91.6174048 C3.6458227,83.0814752 0.681485588,73.1494943 0.124088867,63.7597184 C-0.496648391,54.3420721 1.27688663,45.5249054 3.98279435,38.4990423 C5.33321459,34.9747092 6.90912714,31.8810999 8.46983795,29.2435508 C9.2780632,27.9361778 10.0330824,26.7200169 10.8109042,25.6457414 C11.5532553,24.5461292 12.3158753,23.5934698 12.987285,22.7244215 C14.3630415,21.0116615 15.5082384,19.7144232 16.3265981,18.8732452 C17.137357,18.0219325 17.5706062,17.5709395 17.5706062,17.5709395 L19.2250611,19.2254251 C19.2250611,19.2254251 18.8095471,19.6612161 18.0317253,20.4795911 C17.2412354,21.2852977 16.146711,22.53693 14.8190933,24.1812809 C14.1755535,25.0173916 13.4408033,25.9269786 12.7313892,26.9885858 C11.9814373,28.0223226 11.2568216,29.1928775 10.4815334,30.4445098 C8.97909587,32.9781784 7.46652386,35.9527053 6.16930967,39.3351529 C3.57234767,46.0873798 1.86468681,54.5625013 2.46262147,63.6152993 C2.9972156,72.6402269 5.84500612,82.1845566 10.9958586,90.3835082 C12.2474676,92.4535154 13.6941654,94.3943056 15.1839348,96.2844224 C16.7193094,98.1340005 18.3180246,99.9202369 20.0408872,101.549386 C23.4663434,104.830487 27.2211704,107.690998 31.1558845,109.935829 C39.0227791,114.483764 47.3685282,116.761532 54.5690804,117.407618 C58.1744237,117.75473 61.506136,117.706591 64.4350024,117.47856 C64.8049111,117.453224 65.1646854,117.425353 65.5193924,117.400017 C65.8740994,117.356944 66.2186719,117.318939 66.5632444,117.278401 C67.2447886,117.192256 67.9035302,117.128914 68.5318683,117.027567 C69.7860109,116.809672 70.9438759,116.647517 71.9725262,116.401751 C73.0062438,116.178788 73.928482,115.976095 74.7189719,115.748065 C75.5069282,115.530169 76.1884723,115.362947 76.7256001,115.188124 C77.8049228,114.841011 78.3800549,114.656054 78.3800549,114.656054 C78.3800549,114.656054 78.5776774,114.592712 78.9475861,114.471096 C79.3149612,114.346946 79.8495553,114.139185 80.5310995,113.880751 C80.8706048,113.754067 81.2455808,113.612182 81.6560274,113.455095 C82.0588732,113.282805 82.4946561,113.095314 82.9608425,112.895154 C83.4219616,112.689927 83.921085,112.4847 84.4354102,112.241467 C84.9446681,111.990634 85.4817958,111.727133 86.0391926,111.448429 C90.5135681,109.249205 96.0799344,105.468971 100.774735,100.774083 C105.469536,96.0791952 109.254766,90.5127253 111.451416,86.0382665 C111.725047,85.4783257 111.993611,84.941188 112.241906,84.4319206 C112.485133,83.9175859 112.690357,83.4209868 112.893046,82.9547918 C113.095736,82.4911305 113.28069,82.0578731 113.458044,81.6550198 C113.612595,81.2445655 113.754478,80.8670489 113.886226,80.5250036 C114.137055,79.8459804 114.344812,79.31391 114.471493,78.9439944 C114.593106,78.5740788 114.656447,78.3764526 114.656447,78.3764526 C114.656447,78.3764526 114.841401,77.8013098 115.188507,76.721967 C115.495076,75.6350232 115.976464,74.0438793 116.399579,71.9688047 C116.647873,70.9426689 116.810025,69.7822487 117.027917,68.5280827 C117.126728,67.8997329 117.190068,67.2409791 117.278745,66.5594222 C117.316749,66.2173769 117.357287,65.8702643 117.397825,65.5155507 C117.425695,65.1633708 117.453565,64.8010562 117.481435,64.4362079 C117.706927,61.5047533 117.752532,58.1704454 117.405426,54.565035 C116.761886,47.3643488 114.481627,39.020978 109.933777,31.1564706 C107.686454,27.2166159 104.831063,23.4642527 101.550023,20.0361991 C99.9183709,18.3158381 98.1321678,16.7170932 96.2800905,15.1791564 C94.3925425,13.6918929 92.4543221,12.2451681 90.3818197,10.9960695 C82.1804871,5.84512117 72.6388687,2.99727765 63.614109,2.46267357 C54.5640132,1.86219411 46.0865158,3.56735309 39.3369482,6.16689709 C35.9520299,7.46413542 32.980092,8.97926925 30.4439369,10.4792011 C29.1923279,11.25197 28.0217948,11.9816666 26.9906108,12.7316325 C25.9315571,13.4410597 25.0194533,14.1732899 24.1808246,14.8193754 C22.5365043,16.1444841 21.2899625,17.2415626 20.4817373,18.0295335 C19.6633776,18.8099035 19.2250611,19.2254251 19.2250611,19.2254251 L17.5706062,17.5709395 C17.5706062,17.5709395 18.0241245,17.1376822 18.8779549,16.3243746 C19.7165836,15.5034659 21.0112642,14.3633151 22.7239923,12.987533 C23.5955581,12.3110435 24.5456661,11.5534766 25.6477915,10.8111117 C26.7195133,10.0332754 27.9381853,9.27317481 29.2455339,8.47000186 C31.8830339,6.90926199 34.974052,5.33332011 38.5008531,3.98034107 C45.5240518,1.27691666 54.3435881,-0.49665137 63.7610591,0.12409744 C73.1506602,0.681504536 83.0824563,3.64589682 91.618227,9.00713961 C93.7718053,10.3069116 95.7936352,11.8119108 97.7571918,13.362516 C99.6827441,14.9587272 101.539889,16.6233475 103.237415,18.4146512 C106.64767,21.9769892 109.622141,25.8864399 111.963207,29.9833821 C116.693479,38.172199 119.067482,46.8550814 119.736358,54.3471395 C120.098666,58.0995027 120.050527,61.5630277 119.8149,64.6135647 C119.78703,64.993615 119.759161,65.3711316 119.731291,65.7385136 C119.688219,66.1058955 119.645148,66.4682101 119.60461,66.8229237 C119.513399,67.5298173 119.444992,68.2189751 119.343647,68.8751953 C119.118154,70.177501 118.945868,71.3860609 118.689972,72.4552691 C118.249122,74.6088874 117.752532,76.2684403 117.430762,77.4009902 C117.070988,78.5234054 116.875899,79.1238849 116.875899,79.1238849 C116.875899,79.1238849 116.810025,79.3265784 116.683344,79.711696 C116.551596,80.0942799 116.338772,80.651687 116.072741,81.3585806 C115.935926,81.7132942 115.791509,82.1034792 115.626824,82.5316692 C115.446937,82.9497245 115.251848,83.4032512 115.044091,83.8871819 C114.831267,84.3711126 114.615909,84.8905146 114.362547,85.4251187 C114.104117,85.9546554 113.825419,86.5145962 113.53912,87.0948063 C111.25126,91.7516892 107.316546,97.548723 102.431723,102.428569 C97.5494349,107.313482 91.7550426,111.248269 87.0957127,113.538706 C86.5155134,113.82501 85.9581167,114.10118 85.4260562,114.362148 C84.891462,114.615515 84.3720696,114.828343 83.8906816,115.041171 C83.4042262,115.251466 82.9532416,115.446558 82.5351941,115.626449 C82.1070121,115.78607 81.7168344,115.93809 81.3621273,116.072374 C80.655247,116.335876 80.0978502,116.553771 79.7152734,116.682988 C79.3276293,116.809672 79.1249396,116.875547 79.1249396,116.875547 Z M95.2891911,83.2053716 C95.2891911,83.2053716 95.5298852,82.820254 95.9834034,82.0880238 C96.0974164,81.9081333 96.2266311,81.7029061 96.3685139,81.482477 C96.495195,81.2519131 96.6345441,80.9985463 96.7865614,80.7274437 C97.090596,80.1852386 97.4529039,79.5644898 97.7873419,78.8373269 C99.2112372,75.9818824 100.967037,71.6822468 101.765128,66.2196572 C102.593622,60.7874717 102.380798,54.1999333 100.369102,47.6123949 C98.3726085,41.0375249 94.534172,34.5564006 89.1679617,29.4890633 C87.8580794,28.1892913 86.4164488,27.0542078 84.9697509,25.9368599 C83.4749143,24.8904548 81.9750104,23.8617853 80.3788289,23.0180737 C77.2346046,21.2546403 73.8902243,19.9903397 70.5635793,19.1187577 C63.892554,17.3907957 57.3026046,17.4997434 51.9135918,18.5512159 C49.2102177,19.0731516 46.7931428,19.8256512 44.7155732,20.6389589 C42.6405372,21.4548001 40.8771367,22.2934445 39.4912457,23.0915501 C39.141606,23.2891762 38.8097016,23.4716004 38.4980661,23.6464235 C38.1965652,23.833915 37.9127996,24.0138054 37.6493029,24.1784939 C37.1223097,24.5053372 36.6687914,24.781507 36.3242189,25.0399412 C35.6173385,25.5289393 35.2423626,25.7924408 35.2423626,25.7924408 L29.2174107,17.4921424 C29.2174107,17.4921424 29.6835971,17.1678328 30.5627637,16.5572187 C30.9934794,16.2405101 31.5534097,15.8959312 32.2121513,15.4829432 C32.5389885,15.2802497 32.8936955,15.0598206 33.2686714,14.826723 C33.6588491,14.6062939 34.0692958,14.37573 34.5050787,14.1299642 C36.2330085,13.1418334 38.4271247,12.0903609 41.0114186,11.0743598 C43.5982461,10.0659597 46.6031212,9.131036 49.9601696,8.48241684 C56.6565311,7.17504383 64.8274603,7.04075939 73.1200034,9.18677671 C81.3948111,11.2922553 89.7101567,15.7211081 96.2570345,22.0780826 C102.892589,28.3463788 107.698869,36.4389163 110.176751,44.6175986 C112.679969,52.8064156 112.935865,60.9749632 111.909748,67.7221227 C110.916568,74.5022199 108.737654,79.8609291 106.964119,83.4156661 C106.53847,84.3176522 106.09762,85.0904211 105.717577,85.7694443 C105.530089,86.1064222 105.355269,86.4205971 105.190584,86.704368 C105.018298,86.9830715 104.858679,87.2364384 104.71933,87.4644686 C104.151799,88.3689883 103.850298,88.852919 103.850298,88.852919 L95.2891911,83.2053716 Z M23.0414551,39.5862395 C23.0414551,39.5862395 22.9857154,39.6850526 22.8767697,39.8776114 C22.7703576,40.0727039 22.5980713,40.3539411 22.4156506,40.744126 C22.2256289,41.12671 21.9900021,41.6030397 21.716371,42.1604468 C21.4655425,42.7305222 21.1817769,43.3842087 20.8625406,44.1215063 C20.2950094,45.6189045 19.6007971,47.4431459 19.0712702,49.6170335 C18.5341425,51.7833202 18.0856915,54.2764501 17.8956699,57.0254806 C17.700581,59.7719773 17.7639216,62.7693073 18.18957,65.8958544 C18.6228192,69.0224015 19.4639816,72.26043 20.7054561,75.4604534 C21.9342625,78.6706115 23.677394,81.7870239 25.7701654,84.7235459 C27.880672,87.6473995 30.4497642,90.3356219 33.2671513,92.6868663 C36.1174754,94.9975721 39.2439643,96.9611653 42.5250041,98.4458951 C45.8161784,99.9179566 49.2264328,100.997299 52.6240192,101.567375 C59.4115911,102.79367 65.9736707,102.15772 71.2562714,100.690725 C76.5718093,99.2313324 80.6281372,96.9814346 83.2985742,95.2281359 C83.9547822,94.7670083 84.5400487,94.3540203 85.0518403,93.9993067 C85.5433628,93.6167227 85.9614104,93.2898795 86.3009157,93.0289116 C86.6454882,92.7730111 86.8887158,92.5475146 87.0610021,92.4030954 C87.2282211,92.2586763 87.3168979,92.1851999 87.3168979,92.1851999 L93.9600533,99.9939666 C93.9600533,99.9939666 93.8536412,100.087712 93.6433506,100.265069 C93.4330601,100.447493 93.1290255,100.72113 92.7008435,101.040372 C92.2802623,101.369749 91.7583363,101.770068 91.1451999,102.243864 C90.5193954,102.699925 89.7821115,103.199057 88.9662854,103.7742 C85.6472413,105.958223 80.5901329,108.762994 73.9799145,110.579634 C67.4102341,112.403875 59.2747755,113.186779 50.8403497,111.666578 C46.6269372,110.954617 42.378054,109.619374 38.2862554,107.784998 C34.1969903,105.932886 30.3002805,103.490429 26.7658786,100.617249 C23.2593465,97.7035302 20.0948533,94.379357 17.4674878,90.7410088 C14.8578577,87.092526 12.6966786,83.1982774 11.1587704,79.2128166 C9.6107277,75.2248222 8.5719429,71.2013565 8.03481515,67.3172425 C7.50022102,63.4381958 7.42167876,59.7162366 7.66490642,56.3084523 C7.90053321,52.8956007 8.45539631,49.8019913 9.12933962,47.1061679 C9.79061482,44.4052772 10.6419116,42.1325764 11.3563929,40.2728637 C11.7541715,39.3556756 12.1114121,38.5398344 12.4205139,37.8304071 C12.7600192,37.1336483 13.0539193,36.5433035 13.2895461,36.0644401 C13.517572,35.5830431 13.7303962,35.2283295 13.8621445,34.987631 C13.9989601,34.7469324 14.0673678,34.6227827 14.0673678,34.6227827 L23.0414551,39.5862395 Z" id="Combined-Shape-Copy"></path>
                <path d="M48,80 L70,80 L70,48 L48,48 L48,80 Z M46.99,44 L74,44 L74,84 L46,84 C42.688,84 40,81.314 40,78 L40,42 C40,38.686 42.688,36 46,36 L80,36 L80,40 L46.99,40 C44.238,40 44.238,44 46.99,44 L46.99,44 Z M76,82 L80,82 L80,74 L76,74 L76,82 Z M76,72 L80,72 L80,64 L76,64 L76,72 Z M76,52 L80,52 L80,44 L76,44 L76,52 Z M76,62 L80,62 L80,54 L76,54 L76,62 Z" id="Page-1"></path>
            </g>
        </g>
    </g>
</svg>