<?xml version="1.0" encoding="UTF-8"?>
<svg width="100px" height="100px" viewBox="0 0 100 100" version="1.1" xmlns="http://www.w3.org/2000/svg" xmlns:xlink="http://www.w3.org/1999/xlink">
    <!-- Generator: Sketch 42 (36781) - http://www.bohemiancoding.com/sketch -->
    <title>icon-get-connected</title>
    <desc>Created with Sketch.</desc>
    <defs></defs>
    <g id="Page-1" stroke="none" stroke-width="1" fill="none" fill-rule="evenodd">
        <g id="Landing" transform="translate(-670.000000, -1505.000000)">
            <g id="icon-get-connected" transform="translate(670.000000, 1505.000000)">
                <g id="Group-2-Copy-3" opacity="0.5" transform="translate(50.000000, 50.000000) scale(-1, -1) translate(-50.000000, -50.000000) " fill="#BEBEBE">
                    <path d="M65.9374497,97.3962894 C65.9374497,97.3962894 66.1063578,97.3413932 66.4293945,97.2358237 C66.7482085,97.1281428 67.2127058,96.9465632 67.8017728,96.7269786 C68.097362,96.6150749 68.42251,96.4883914 68.7793284,96.3553738 C69.1277014,96.2054651 69.5035219,96.042888 69.9089013,95.8676426 C70.310058,95.6902858 70.742885,95.512929 71.1883801,95.30179 C71.6317639,95.0843167 72.0962612,94.8541752 72.5797606,94.6155881 C76.4625355,92.706891 81.2911957,89.4279016 85.3597695,85.3571407 C89.4304547,81.2906025 92.7093831,76.459741 94.6159332,72.5790053 C94.8545159,72.0954968 95.0867646,71.6288795 95.3021224,71.1875989 C95.5132575,70.7420955 95.6927224,70.3092605 95.8700759,69.9059849 C96.0432067,69.5027093 96.2057807,69.1247704 96.3556866,68.776391 C96.4929245,68.419566 96.6132715,68.0944118 96.7272845,67.7988172 C96.9489763,67.2097392 97.1263298,66.7452333 97.2361201,66.4264133 C97.3416877,66.105482 97.3965828,65.9365707 97.3965828,65.9365707 C97.3965828,65.9365707 97.5591568,65.4361712 97.8589687,64.5008252 C98.1271103,63.5570336 98.5409351,62.1740728 98.9083103,60.3793909 C99.1215567,59.4883841 99.2651286,58.4812508 99.4530389,57.3959961 C99.5374929,56.849146 99.5944994,56.2748477 99.670508,55.6857698 C99.7042897,55.3901751 99.7401826,55.0882463 99.7760756,54.7820946 C99.7993005,54.475943 99.8225253,54.1613458 99.8457502,53.8446373 C100.042106,51.3025231 100.082222,48.4162522 99.7802983,45.2892829 C99.2229016,39.0459011 97.2445655,31.8101659 93.3026728,24.9861517 C91.3517843,21.5720333 88.8730579,18.3141577 86.0311792,15.3455426 C84.6165739,13.8527896 83.0689534,12.465606 81.4643265,11.13543 C79.8280293,9.84325897 78.143171,8.589093 76.3485225,7.50594967 C69.2353803,3.03824735 60.9588835,0.567920446 53.1342159,0.103414534 C45.2863234,-0.413876142 37.9367098,1.06409722 32.0840443,3.31695089 C29.1450434,4.44443343 26.5691949,5.75771833 24.3712783,7.05833488 C23.281821,7.72764567 22.2662611,8.36106283 21.3731595,9.00925972 C20.4547218,9.62789714 19.6629651,10.2592029 18.9366602,10.8229442 C17.5093868,11.9694292 16.4304863,12.9195549 15.7316291,13.6036455 C15.0201037,14.2814018 14.6421719,14.6424496 14.6421719,14.6424496 L16.0208842,16.0211876 C16.0208842,16.0211876 16.386148,15.6749196 17.0681144,15.0246113 C17.7416355,14.3679688 18.7804202,13.4537367 20.1506872,12.3494795 C20.8495444,11.8110749 21.6096309,11.2008831 22.4921757,10.6096937 C23.3514956,9.98472213 24.3269399,9.37664167 25.3699474,8.73266756 C27.48341,7.48272438 29.9600249,6.22011285 32.7807902,5.13908091 C38.4054298,2.97279424 45.470011,1.55182843 53.0117575,2.05222798 C60.5323906,2.49773137 68.4837392,4.87093431 75.3181831,9.16339122 C77.0452684,10.2043067 78.6604521,11.4099107 80.2334088,12.649297 C81.7768065,13.930911 83.2653091,15.2631984 84.6250193,16.6968326 C87.3592191,19.5535439 89.7387119,22.6805133 91.6114805,25.9637255 C95.4013559,32.5174817 97.301572,39.4702906 97.8378552,45.4708625 C98.1271103,48.4753712 98.089106,51.2539611 97.9011957,53.6968399 C97.8779709,54.0008802 97.854746,54.302809 97.8315211,54.5962923 C97.7977395,54.8918869 97.7639579,55.1811474 97.7322876,55.4661852 C97.6583903,56.0341492 97.6056066,56.5831107 97.5232639,57.1067356 C97.3416877,58.1518739 97.2065612,59.1188908 96.9996488,59.9740039 C96.6470531,61.7032327 96.2458964,63.029186 95.9904229,63.9349725 C95.7011678,64.8344249 95.5470391,65.3137105 95.5470391,65.3137105 C95.5470391,65.3137105 95.4942553,65.478399 95.3929105,65.786662 C95.2873429,66.094925 95.1142121,66.538317 94.9051884,67.1041697 C94.7953981,67.3892074 94.6771624,67.7038046 94.54837,68.0458498 C94.4005754,68.3815609 94.2464468,68.7426087 94.0775387,69.1289932 C93.9086306,69.517489 93.7376111,69.9313216 93.5349214,70.3599338 C93.328009,70.7843233 93.1042058,71.2319381 92.8761798,71.6985554 C91.0456383,75.4272711 87.8912796,80.065996 83.9789458,83.9784027 C80.066612,87.8908093 75.4279734,91.0410039 71.6993271,92.8736909 C71.2348299,93.1059438 70.7872234,93.3255284 70.3628418,93.5345561 C69.9342375,93.7372496 69.5183013,93.9082722 69.1340354,94.0792949 C68.7455468,94.2460947 68.3823944,94.4023376 68.0466895,94.5459122 C67.7046506,94.6768184 67.3921707,94.7950562 67.1092496,94.9006258 C66.5412961,95.1159876 66.095801,95.2891216 65.7896551,95.3925798 C65.4813978,95.4939265 65.3167124,95.5467113 65.3167124,95.5467113 C65.3167124,95.5467113 64.8374357,95.7008428 63.9380001,95.9901033 C63.4903936,96.1357892 62.9224401,96.275141 62.2658099,96.4567206 C61.6070683,96.6467457 60.8385365,96.815657 59.9771052,97.0014593 C59.1198966,97.2062642 58.1550091,97.3413932 57.1098902,97.5229728 C56.5862751,97.6074284 56.0373238,97.6602132 55.4693703,97.7320004 C55.1822266,97.7657827 54.8950828,97.7974536 54.5994936,97.8333472 C54.3039045,97.8544611 54.0040926,97.8776864 53.6958353,97.8988003 C51.2551133,98.0888254 48.4786865,98.1289419 45.4742337,97.8396814 C39.4737735,97.3012768 32.5189826,95.4031367 25.9632371,91.6131907 C22.6843086,89.7424987 19.5552861,87.3587389 16.7007393,84.6244881 C15.2650205,83.266864 13.9327579,81.7783337 12.653279,80.2370187 C11.4118045,78.6619213 10.206223,77.0445962 9.16321546,75.3195902 C4.87083844,68.4871305 2.49767967,60.5335224 2.05218456,53.0127494 C1.55390567,45.4687511 2.97695639,38.4061498 5.14109139,32.7792941 C6.22210321,29.9605878 7.48257989,27.4818153 8.73461116,25.3704248 C9.38068463,24.3273979 9.98453108,23.3519355 10.609491,22.4904881 C11.2006694,21.6058155 11.8129612,20.8478263 12.3492444,20.1510675 C13.4555925,18.780775 14.3676962,17.7377481 15.0264378,17.0663259 C15.6746226,16.3843468 16.0208842,16.0211876 16.0208842,16.0211876 L14.6421719,14.6424496 C14.6421719,14.6424496 14.2811308,15.0182771 13.6054984,15.7277043 C12.923532,16.428686 11.9692012,17.5097179 10.8227375,18.9370179 C10.2632294,19.6612249 9.62771273,20.4551077 9.00908682,21.3714512 C8.360902,22.2666807 7.73171933,23.2801482 7.0581983,24.3696257 C5.75760595,26.5675832 4.44434549,29.145591 3.31899529,32.0825352 C1.06407219,37.9374211 -0.413873659,45.2850601 0.103407389,53.1330987 C0.567904657,60.9579119 3.03818558,69.2345627 7.50580475,76.3478373 C8.59103928,78.1446307 9.84729325,79.8295203 11.1373288,81.4658479 C12.4695915,83.0705047 13.8546379,84.6160426 15.3473632,86.0327856 C18.315923,88.8747172 21.5716266,91.3534897 24.9877928,93.3023032 C31.81168,97.2463806 39.0493919,99.2226422 45.2905461,99.7821606 C48.4174573,100.081978 51.3036744,100.041862 53.8457412,99.8455024 C54.1645553,99.8201657 54.4770353,99.7990518 54.7852925,99.7758265 C55.0914385,99.7399328 55.3933617,99.7061506 55.6889509,99.6681455 C56.2801292,99.5942469 56.850194,99.5393507 57.397034,99.4527837 C58.4864912,99.26487 59.4893831,99.1212954 60.3803733,98.908045 C61.2776975,98.7159084 62.0778996,98.5427744 62.7598661,98.3443037 C63.4460552,98.1521672 64.0372336,98.010704 64.5017308,97.8586839 C65.4391708,97.556755 65.9374497,97.3962894 65.9374497,97.3962894" id="Combined-Shape"></path>
                    <path d="M40.9210304,83.7726589 C40.9210304,83.7726589 43.1494471,84.3614936 45.4402844,84.6340637 C45.7274193,84.6673547 46.0083122,84.7110491 46.2912857,84.7401788 C46.5763399,84.7609857 46.8551521,84.7797118 47.1235608,84.8005187 C47.662459,84.8483745 48.1639048,84.8816655 48.5987685,84.8816655 C49.0336323,84.892069 49.3935913,84.9045531 49.6453545,84.9107952 C49.8991984,84.9170372 50.0448466,84.9045531 50.0448466,84.9045531 L50.1114286,93.3271775 C50.1114286,93.3271775 49.9324894,93.3375809 49.6203862,93.3313388 C49.3062024,93.3230161 48.8588545,93.3126126 48.3241177,93.2980478 C47.7852196,93.2959671 47.1610132,93.2585148 46.4931124,93.1981748 C46.1602024,93.1732066 45.8127275,93.1461576 45.4610913,93.1191087 C45.1115357,93.0878984 44.7578188,93.0338005 44.4020212,92.9921867 C43.6904259,92.9068785 42.9809114,92.8132476 42.323414,92.6821642 C41.6617553,92.5614843 41.043791,92.463692 40.523619,92.330528 C39.9992857,92.2119288 39.564422,92.1078944 39.2585608,92.0392317 C38.9526997,91.9726497 38.7820833,91.9185518 38.7820833,91.9185518 L40.9210304,83.7726589 Z M80.8219648,65.6642247 C80.8219648,65.6642247 81.0050653,65.3396374 81.2817968,64.6987855 C81.4170415,64.3804403 81.6126262,63.995513 81.7998881,63.5273583 C81.9767466,63.0529614 82.2097836,62.5203054 82.4240944,61.9065025 C82.8527161,60.6788966 83.3229516,59.170398 83.6995561,57.3976519 C84.0595151,55.6228252 84.3404079,53.5879125 84.413232,51.3511731 C84.5672029,46.8776943 83.826478,41.607312 81.6022228,36.4846585 C79.3925323,31.3744892 75.7221989,26.4411784 70.9782307,22.8145395 C68.6395376,20.9668887 66.024113,19.4937617 63.3462677,18.3202538 C60.6496963,17.1821175 57.8574132,16.4081017 55.1046632,15.9669958 C52.3477519,15.5508583 49.6178894,15.4821956 47.0648854,15.6756995 C44.5098008,15.8712842 42.1274132,16.3373583 39.9905468,16.965726 C35.7043299,18.2224614 32.4314079,20.0929998 30.2820574,21.5494813 C29.7556434,21.9323278 29.2708431,22.2569152 28.8692704,22.5648569 C28.471859,22.8790408 28.1327069,23.1432882 27.8580561,23.3596797 C27.3191579,23.8049469 27.0424265,24.0546294 27.0424265,24.0546294 L21.520281,17.6960474 C21.520281,17.6960474 21.6076698,17.6211427 21.7782862,17.4754945 C21.9489026,17.3319271 22.1902624,17.1030514 22.5314952,16.8346427 C22.872728,16.5662339 23.2951077,16.2354046 23.7882307,15.8483966 C24.2875958,15.4676308 24.8847532,15.0618966 25.5422505,14.5874998 C28.211773,12.7773014 32.2836791,10.4510924 37.6206434,8.88433446 C42.9326394,7.30717309 49.5159357,6.59765854 56.3884476,7.64424452 C59.8132598,8.18730404 63.2921698,9.15274319 66.6483193,10.5717723 C69.9836619,12.0282538 73.2274542,13.8675818 76.1362558,16.1584191 C82.020441,20.6631083 86.5854701,26.7761691 89.331978,33.1389125 C92.1034542,39.5203821 93.0210376,46.0870329 92.8296143,51.6154204 C92.7422254,54.391058 92.3947505,56.917013 91.9411606,59.1246228 C91.4730058,61.3322326 90.8904132,63.2131744 90.3535958,64.74248 C90.0893484,65.5060924 89.8001328,66.1698318 89.5774992,66.7565858 C89.3444622,67.3412591 89.1031024,67.8198173 88.9304053,68.2193093 C88.5829304,69.0120514 88.3582161,69.4177855 88.3582161,69.4177855 L80.8219648,65.6642247 Z M72.8100683,76.1388234 C72.8100683,76.1388234 72.9203447,76.0431117 73.1096873,75.8766567 C73.2886265,75.7039596 73.5507931,75.4542771 73.864977,75.154658 C74.1833222,74.8675231 74.5307971,74.4992413 74.9032402,74.1039107 C75.0905021,73.9104067 75.2819254,73.7064993 75.4754294,73.5005112 C75.6626913,73.2862003 75.8499532,73.0677281 76.0392958,72.8492559 C76.4263037,72.4227149 76.7821013,71.9691249 77.11085,71.5405032 C77.4541635,71.1243657 77.7517019,70.7165509 77.9951423,70.3586726 C78.5069915,69.6616421 78.810772,69.1685191 78.810772,69.1685191 L85.8580616,73.7772427 C85.8580616,73.7772427 85.4835378,74.3848035 84.848928,75.2524503 C84.5430669,75.6935562 84.1768659,76.201244 83.7524056,76.7214159 C83.3425101,77.254072 82.8993235,77.8158577 82.4186847,78.3485138 C82.1856476,78.6169226 81.9526106,78.887412 81.7195735,79.15374 C81.4782138,79.4096646 81.2389347,79.6614278 81.0079783,79.906949 C80.550227,80.39383 80.1153632,80.8474199 79.7200325,81.2094596 C79.3309439,81.5777413 79.0084373,81.8877638 78.7795616,82.1041554 C78.5444439,82.3101435 78.4112799,82.426662 78.4112799,82.426662 L72.8100683,76.1388234 Z M63.2334944,82.2019477 C63.2334944,82.2019477 63.7578278,81.9647493 64.5443278,81.6089517 C65.322505,81.2365085 66.3503648,80.7163366 67.3407722,80.1254212 C68.3311796,79.5428286 69.2924574,78.9061382 69.9894878,78.394289 C70.3452854,78.1487678 70.6365817,77.9344569 70.8300857,77.774244 C71.0277511,77.6161117 71.1401082,77.5287228 71.1401082,77.5287228 L76.3397471,84.1515522 C76.3397471,84.1515522 76.1982603,84.2639093 75.9527392,84.459494 C75.7092987,84.6571593 75.3493397,84.9234874 74.9103146,85.2293485 C74.0426677,85.8639583 72.8504336,86.6567003 71.6165857,87.3807797 C70.3868992,88.1152625 69.1072762,88.7602757 68.1397563,89.2242691 C67.1618331,89.6674556 66.5084971,89.9608326 66.5084971,89.9608326 L63.2334944,82.2019477 Z M52.2164604,84.8150835 C52.2164604,84.8150835 54.5260239,84.6860809 56.7814896,84.2033613 C57.3432753,84.0743587 57.9008996,83.945356 58.4252329,83.8225954 C58.9454049,83.6769473 59.4302052,83.5396219 59.844262,83.4210227 C60.2603996,83.3065849 60.5953903,83.1713402 60.8346694,83.0985161 C61.0739485,83.0173693 61.2091933,82.9715941 61.2091933,82.9715941 L63.9869115,90.9219023 C63.9869115,90.9219023 63.8183758,90.9780809 63.5229181,91.0800346 C63.2232991,91.1736655 62.8071615,91.3359592 62.2890702,91.4795267 C61.770979,91.6251748 61.1696602,91.7978719 60.524647,91.9788917 C59.8692303,92.1328626 59.1721999,92.2930756 58.4751694,92.4532886 C55.6683216,93.0525267 52.8032144,93.216901 52.8032144,93.216901 L52.2164604,84.8150835 Z M30.5968655,79.1316847 C30.5968655,79.1316847 31.0795851,79.4417072 31.8078258,79.9077813 C32.1823496,80.1241728 32.619294,80.3738554 33.0874488,80.6443448 C33.5597649,80.9065114 34.0799369,81.1541133 34.5876247,81.4204413 C36.6495864,82.4503818 38.8488734,83.1494929 38.8488734,83.1494929 L36.1980771,91.1434956 C36.1980771,91.1434956 33.4640533,90.2716874 30.8964845,88.9899837 C30.2618747,88.661235 29.6168615,88.3470511 29.0301075,88.0224638 C28.4475149,87.6874731 27.9044554,87.3774506 27.4383813,87.1090419 C26.5353628,86.5306107 25.934044,86.1436027 25.934044,86.1436027 L30.5968655,79.1316847 Z M22.3005389,71.3921502 L22.5460601,71.7042534 C22.706273,71.8977573 22.9101804,72.1973764 23.2035574,72.5178023 C23.486531,72.8423896 23.8173603,73.2231555 24.1710772,73.6309703 C24.5497624,74.0200589 24.9409317,74.4445193 25.3466659,74.8523341 C25.7669648,75.2455841 26.1747796,75.6533989 26.5784331,76.0154386 C26.9862479,76.3691555 27.3670138,76.6999849 27.6936817,76.9850391 C28.3740667,77.5156145 28.8276566,77.8734928 28.8276566,77.8734928 L23.7341328,84.5837111 C23.7341328,84.5837111 23.1744278,84.1384439 22.3296685,83.4767851 C21.9239344,83.1251489 21.4516183,82.7131727 20.9439304,82.2741476 C20.4445653,81.8267997 19.9347968,81.3211925 19.4146249,80.8322309 C18.9090177,80.3245431 18.4242175,79.798129 17.9581434,79.3174902 C17.5087148,78.8181251 17.1050614,78.3374862 16.7534251,77.9359134 C16.3934661,77.5343407 16.1354608,77.1660589 15.9357148,76.9267798 C15.7442915,76.679178 15.6340151,76.5397719 15.6340151,76.5397719 L22.3005389,71.3921502 Z M16.9423516,61.4175408 C16.9423516,61.4175408 16.986046,61.5527855 17.0692735,61.7920646 C17.1400169,62.0334244 17.2690196,62.3684152 17.4313132,62.7679072 C17.7350937,63.5752141 18.1970063,64.6322035 18.7088556,65.6600633 C19.2165434,66.6941652 19.7928939,67.6908146 20.2444032,68.4273781 C20.7104772,69.1556189 21.0204997,69.6383384 21.0204997,69.6383384 L14.0460341,74.3594191 C14.0460341,74.3594191 13.6590262,73.7581003 13.0785143,72.8550818 C12.5188093,71.9395792 11.800972,70.6974085 11.1684429,69.4136241 C10.5317524,68.1319204 9.96164392,66.8190064 9.58087804,65.8119535 C9.37905132,65.3146691 9.21883836,64.8964509 9.1272881,64.5968318 C9.02533439,64.3013741 8.96915582,64.1328384 8.96915582,64.1328384 L16.9423516,61.4175408 Z M15.0872103,50.2357163 C15.0872103,50.2357163 15.1038558,50.8141476 15.1267434,51.6797137 C15.1205013,52.1145775 15.189164,52.6160232 15.2203743,53.1549214 C15.2474233,53.6959002 15.3285701,54.2660087 15.4013942,54.8381978 C15.4617341,55.410387 15.5678492,55.9763341 15.6656415,56.5089902 C15.7134974,56.7732375 15.7592725,57.0312428 15.8029669,57.2746833 C15.8591455,57.5139624 15.9111627,57.7407573 15.9610992,57.9509068 C16.0588915,58.3712058 16.1400384,58.7207613 16.1962169,58.9662825 C16.2648796,59.2076423 16.3064934,59.3470484 16.3064934,59.3470484 L8.17932672,61.5525775 C8.17932672,61.5525775 8.12939021,61.3798804 8.04408201,61.0802613 C7.97333862,60.7723195 7.86930423,60.3374558 7.74862434,59.8152031 C7.6862037,59.5551171 7.62170238,59.2721436 7.55303968,58.9704439 C7.4989418,58.6708248 7.44068254,58.3483182 7.38034259,58.0195695 C7.2596627,57.3599915 7.13066005,56.656719 7.0536746,55.9430431 C6.96420503,55.2314478 6.8664127,54.524014 6.82896032,53.8540325 C6.78526587,53.184051 6.71036111,52.5619253 6.7124418,52.0230272 C6.68331217,50.951473 6.66666667,50.2357163 6.66666667,50.2357163 L15.0872103,50.2357163 Z" id="Combined-Shape" transform="translate(49.760301, 50.241561) scale(1, -1) translate(-49.760301, -50.241561) "></path>
                </g>
                <path d="M51.364124,36.5099216 L47.4589127,40.4151329 C49.1615262,40.2871369 50.8881389,40.5431289 52.497422,41.1804423 L54.2653667,39.4124975 C56.0066456,37.6698853 58.8412237,37.6698853 60.5851692,39.4124975 C62.3277814,41.1551097 62.3277814,43.9896878 60.5851692,45.7323 L54.8440153,51.473454 C53.0974032,53.220066 50.257492,53.2053998 48.5255461,51.473454 C48.1202254,51.0681333 47.7735696,50.5654823 47.556243,50.0708311 L44.5603367,53.0640709 C44.8763268,53.5413893 45.2016499,53.9533765 45.6216368,54.3733633 C46.7042697,55.4559962 48.0842265,56.2626376 49.6695103,56.6466256 C51.7254461,57.1412768 53.9293772,56.867952 55.8213181,55.8226514 C56.5106299,55.44133 57.1612762,54.9586784 57.745258,54.3733633 L63.4850786,48.6335427 C66.8343073,45.2856473 66.8343073,39.8578169 63.4864119,36.5099216 C60.1385165,33.1633595 54.7120194,33.1633595 51.364124,36.5099216 L51.364124,36.5099216 Z M42.2497422,45.6243034 C42.8350572,45.0389884 43.483037,44.5563368 44.1736821,44.1750154 C48.0242284,42.0537483 52.9587409,43.1817131 55.4346635,46.9335958 L52.4400904,49.9268356 C51.5801173,47.9682302 49.4481839,46.8535983 47.3282502,47.3282502 C46.5296084,47.5069112 45.7709655,47.9055655 45.1496516,48.5255461 L39.4124975,54.2667 C37.6698853,56.0093122 37.6698853,58.8438903 39.4124975,60.5878358 C41.1551097,62.3291147 43.9896878,62.3291147 45.7309667,60.5878358 L47.5015781,58.8172245 C49.1108611,59.4558712 50.8361405,59.7105299 52.5400873,59.5852005 L48.634876,63.4890785 C45.2856473,66.8369738 39.8591502,66.8369738 36.5099216,63.4890785 C33.1633595,60.1425164 33.1633595,54.7133527 36.5099216,51.3667906 L42.2497422,45.6243034 Z" id="Fill-1" fill="#5A5A5A"></path>
            </g>
        </g>
    </g>
</svg>