<?xml version="1.0" encoding="UTF-8"?>
<svg width="1920px" height="720px" viewBox="0 0 1920 720" version="1.1" xmlns="http://www.w3.org/2000/svg" xmlns:xlink="http://www.w3.org/1999/xlink">
    <!-- Generator: Sketch 42 (36781) - http://www.bohemiancoding.com/sketch -->
    <title>goggles-lg</title>
    <desc>Created with Sketch.</desc>
    <defs></defs>
    <g id="Page-1" stroke="none" stroke-width="1" fill="none" fill-rule="evenodd">
        <g id="goggles-lg">
            <path d="M0,0 L1920,0 L1920,720 L0,720 L0,0 Z M1235.43738,613.710421 C1264.75179,539.620014 1264.75179,467.577377 1235.439,393.48697 C1231.50777,383.904058 1218.18318,373.568904 1210.80339,372.544111 C1128.55629,361.705645 1045.15535,356.207372 962.914753,356.207372 C880.67416,356.207372 797.273212,361.705645 715.15288,372.527757 C707.644698,373.568904 694.318488,383.904058 690.390506,393.48697 C661.077719,467.579194 661.077719,539.620014 690.392131,613.710421 C694.321738,623.289699 707.646323,633.62667 715.026118,634.651463 C758.480939,640.37868 802.545191,644.652287 846.069893,647.359633 C846.274662,647.372352 846.481055,647.377803 846.689074,647.377803 C853.948608,647.377803 864.391807,640.593087 868.524557,633.272353 C875.463937,620.798578 883.121633,607.892354 891.905555,593.865036 C905.187886,572.540604 933.389072,556.460064 957.530639,556.460064 L968.316744,556.460064 C992.435559,556.460064 1020.63837,572.540604 1033.89145,593.815977 C1042.70625,607.892354 1050.36557,620.798578 1057.22857,633.137894 C1061.43607,640.59127 1071.87927,647.377803 1079.14043,647.377803 C1079.34845,647.377803 1079.55485,647.372352 1079.83437,647.355999 C1123.28107,644.652287 1167.34694,640.37868 1210.675,634.667817 C1218.18318,633.628487 1231.50614,623.291516 1235.43738,613.710421 Z" id="Combined-Shape" fill-opacity="0.65" fill="#32C3D7"></path>
            <path d="M1279.32611,421.974056 L1267.41053,421.974056 C1263.97822,409.254984 1259.75121,396.535913 1254.71325,383.816842 C1247.8665,366.918647 1228.2851,351.166986 1213.27524,349.084692 C1173.18447,343.802643 1133.09533,339.79977 1093.00457,337.056085 L1093.00457,313.86195 C1093.00457,301.98052 1084.38641,290.002789 1073.69131,287.602519 C1000.48979,272.132494 925.339716,272.132494 852.138194,287.602519 C841.443098,290.002789 832.823315,301.98052 832.823315,313.86195 L832.823315,337.056085 C792.734175,339.79977 752.643409,343.802643 712.552644,349.084692 C697.544406,351.166986 677.961378,366.91683 671.114631,383.816842 C666.078299,396.535913 661.85129,409.254984 658.418978,421.974056 L646.501771,421.974056 C635.731918,421.974056 627,431.736851 627,443.778178 L627,572.785901 C627,584.827227 635.731918,594.590023 646.501771,594.590023 L661.095596,594.590023 C663.983483,604.185654 667.315036,613.783101 671.114631,623.378732 C677.961378,640.276927 697.544406,656.026771 712.552644,658.110882 C756.642897,663.92168 800.731526,668.197105 844.82178,670.938974 C859.896649,671.936512 878.090176,660.583833 886.464561,645.747945 C893.524202,633.054311 901.175397,620.248024 909.244255,607.363604 C918.582353,592.369636 940.63723,580.07938 957.511138,580.081197 C961.11409,580.084831 964.715417,580.084831 968.316744,580.081197 C985.190651,580.081197 1007.24553,592.369636 1016.58525,607.363604 C1024.65411,620.248024 1032.30368,633.054311 1039.36332,645.747945 C1047.73933,660.583833 1065.93123,671.936512 1081.00773,670.938974 C1125.09636,668.197105 1169.18498,663.92168 1213.27524,658.110882 C1228.2851,656.028588 1247.8665,640.278744 1254.71325,623.378732 C1258.51447,613.783101 1261.84602,604.185654 1264.73229,594.590023 L1279.32611,594.590023 C1290.09759,594.590023 1298.82788,584.827227 1298.82788,572.785901 L1298.82788,443.778178 C1298.82788,431.736851 1290.09759,421.974056 1279.32611,421.974056" id="Fill-1" stroke="#FFFFFF" stroke-width="10" opacity="0.25"></path>
            <path d="M1235.43738,613.710421 C1231.50614,623.291516 1218.18318,633.628487 1210.675,634.667817 C1167.34694,640.37868 1123.28107,644.652287 1079.83437,647.355999 C1079.55485,647.372352 1079.34845,647.377803 1079.14043,647.377803 C1071.87927,647.377803 1061.43607,640.59127 1057.22857,633.137894 C1050.36557,620.798578 1042.70625,607.892354 1033.89145,593.815977 C1020.63837,572.540604 992.435559,556.460064 968.316744,556.460064 L957.530639,556.460064 C933.389072,556.460064 905.187886,572.540604 891.905555,593.865036 C883.121633,607.892354 875.463937,620.798578 868.524557,633.272353 C864.391807,640.593087 853.948608,647.377803 846.689074,647.377803 C846.481055,647.377803 846.274662,647.372352 846.069893,647.359633 C802.545191,644.652287 758.480939,640.37868 715.026118,634.651463 C707.646323,633.62667 694.321738,623.289699 690.392131,613.710421 C661.077719,539.620014 661.077719,467.579194 690.390506,393.48697 C694.318488,383.904058 707.644698,373.568904 715.15288,372.527757 C797.273212,361.705645 880.67416,356.207372 962.914753,356.207372 C1045.15535,356.207372 1128.55629,361.705645 1210.80339,372.544111 C1218.18318,373.568904 1231.50777,383.904058 1235.439,393.48697 C1264.75179,467.577377 1264.75179,539.620014 1235.43738,613.710421 M1279.32611,421.974056 L1267.41053,421.974056 C1263.97822,409.254984 1259.75121,396.535913 1254.71325,383.816842 C1247.8665,366.918647 1228.2851,351.166986 1213.27524,349.084692 C1173.18447,343.802643 1133.09533,339.79977 1093.00457,337.056085 L1093.00457,313.86195 C1093.00457,301.98052 1084.38641,290.002789 1073.69131,287.602519 C1000.48979,272.132494 925.339716,272.132494 852.138194,287.602519 C841.443098,290.002789 832.823315,301.98052 832.823315,313.86195 L832.823315,337.056085 C792.734175,339.79977 752.643409,343.802643 712.552644,349.084692 C697.544406,351.166986 677.961378,366.91683 671.114631,383.816842 C666.078299,396.535913 661.85129,409.254984 658.418978,421.974056 L646.501771,421.974056 C635.731918,421.974056 627,431.736851 627,443.778178 L627,572.785901 C627,584.827227 635.731918,594.590023 646.501771,594.590023 L661.095596,594.590023 C663.983483,604.185654 667.315036,613.783101 671.114631,623.378732 C677.961378,640.276927 697.544406,656.026771 712.552644,658.110882 C756.642897,663.92168 800.731526,668.197105 844.82178,670.938974 C859.896649,671.936512 878.090176,660.583833 886.464561,645.747945 C893.524202,633.054311 901.175397,620.248024 909.244255,607.363604 C918.582353,592.369636 940.63723,580.07938 957.511138,580.081197 C961.11409,580.084831 964.715417,580.084831 968.316744,580.081197 C985.190651,580.081197 1007.24553,592.369636 1016.58525,607.363604 C1024.65411,620.248024 1032.30368,633.054311 1039.36332,645.747945 C1047.73933,660.583833 1065.93123,671.936512 1081.00773,670.938974 C1125.09636,668.197105 1169.18498,663.92168 1213.27524,658.110882 C1228.2851,656.028588 1247.8665,640.278744 1254.71325,623.378732 C1258.51447,613.783101 1261.84602,604.185654 1264.73229,594.590023 L1279.32611,594.590023 C1290.09759,594.590023 1298.82788,584.827227 1298.82788,572.785901 L1298.82788,443.778178 C1298.82788,431.736851 1290.09759,421.974056 1279.32611,421.974056" id="Fill-1" fill="#FEFEFE" opacity="0.25"></path>
            <path d="M961.302,636.0015 L956.8095,640.4715 L969.0585,652.7805 L956.8095,665.088 L961.302,669.5565 L978,652.7805 L961.302,636.0015 Z M942,640.473 L954.249,652.7805 L942,665.088 L946.4925,669.558 L963.1905,652.7805 L946.4925,636.003 L942,640.473 Z" id="Page-1" fill="#FFFFFF" transform="translate(960.000000, 652.779000) rotate(-270.000000) translate(-960.000000, -652.779000) "></path>
            <path d="M1235.43738,613.710421 C1231.50614,623.291516 1218.18318,633.628487 1210.675,634.667817 C1167.34694,640.37868 1123.28107,644.652287 1079.83437,647.355999 C1079.55485,647.372352 1079.34845,647.377803 1079.14043,647.377803 C1071.87927,647.377803 1061.43607,640.59127 1057.22857,633.137894 C1050.36557,620.798578 1042.70625,607.892354 1033.89145,593.815977 C1020.63837,572.540604 992.435559,556.460064 968.316744,556.460064 L957.530639,556.460064 C933.389072,556.460064 905.187886,572.540604 891.905555,593.865036 C883.121633,607.892354 875.463937,620.798578 868.524557,633.272353 C864.391807,640.593087 853.948608,647.377803 846.689074,647.377803 C846.481055,647.377803 846.274662,647.372352 846.069893,647.359633 C802.545191,644.652287 758.480939,640.37868 715.026118,634.651463 C707.646323,633.62667 694.321738,623.289699 690.392131,613.710421 C661.077719,539.620014 661.077719,467.579194 690.390506,393.48697 C694.318488,383.904058 707.644698,373.568904 715.15288,372.527757 C797.273212,361.705645 880.67416,356.207372 962.914753,356.207372 C1045.15535,356.207372 1128.55629,361.705645 1210.80339,372.544111 C1218.18318,373.568904 1231.50777,383.904058 1235.439,393.48697 C1264.75179,467.577377 1264.75179,539.620014 1235.43738,613.710421 M1279.32611,421.974056 L1267.41053,421.974056 C1263.97822,409.254984 1259.75121,396.535913 1254.71325,383.816842 C1247.8665,366.918647 1228.2851,351.166986 1213.27524,349.084692 C1173.18447,343.802643 1133.09533,339.79977 1093.00457,337.056085 L1093.00457,313.86195 C1093.00457,301.98052 1084.38641,290.002789 1073.69131,287.602519 C1000.48979,272.132494 925.339716,272.132494 852.138194,287.602519 C841.443098,290.002789 832.823315,301.98052 832.823315,313.86195 L832.823315,337.056085 C792.734175,339.79977 752.643409,343.802643 712.552644,349.084692 C697.544406,351.166986 677.961378,366.91683 671.114631,383.816842 C666.078299,396.535913 661.85129,409.254984 658.418978,421.974056 L646.501771,421.974056 C635.731918,421.974056 627,431.736851 627,443.778178 L627,572.785901 C627,584.827227 635.731918,594.590023 646.501771,594.590023 L661.095596,594.590023 C663.983483,604.185654 667.315036,613.783101 671.114631,623.378732 C677.961378,640.276927 697.544406,656.026771 712.552644,658.110882 C756.642897,663.92168 800.731526,668.197105 844.82178,670.938974 C859.896649,671.936512 878.090176,660.583833 886.464561,645.747945 C893.524202,633.054311 901.175397,620.248024 909.244255,607.363604 C918.582353,592.369636 940.63723,580.07938 957.511138,580.081197 C961.11409,580.084831 964.715417,580.084831 968.316744,580.081197 C985.190651,580.081197 1007.24553,592.369636 1016.58525,607.363604 C1024.65411,620.248024 1032.30368,633.054311 1039.36332,645.747945 C1047.73933,660.583833 1065.93123,671.936512 1081.00773,670.938974 C1125.09636,668.197105 1169.18498,663.92168 1213.27524,658.110882 C1228.2851,656.028588 1247.8665,640.278744 1254.71325,623.378732 C1258.51447,613.783101 1261.84602,604.185654 1264.73229,594.590023 L1279.32611,594.590023 C1290.09759,594.590023 1298.82788,584.827227 1298.82788,572.785901 L1298.82788,443.778178 C1298.82788,431.736851 1290.09759,421.974056 1279.32611,421.974056" id="Fill-1" fill="#FEFEFE" opacity="0.25"></path>
            <g id="Page-1" transform="translate(923.000000, 289.000000)" fill="#000000">
                <path d="M17.3018369,44.5303571 C15.2736111,46.8261161 13.1170251,47.8953125 10.5148746,47.8953125 C5.87979391,47.8953125 2.10828853,44.0002232 2.10828853,39.2118304 L2.10828853,39.1345982 C2.10828853,34.3080357 5.78369176,30.5276786 10.4758961,30.5276786 C13.0415323,30.5276786 15.177733,31.528125 17.1987903,33.6772321 L17.6277778,34.1334821 L19.1295699,32.7375 L18.6947581,32.2790179 C16.927957,30.4120536 14.5733423,28.5037946 10.5148746,28.5037946 C7.65891577,28.5037946 4.99672939,29.6272321 3.01957885,31.6676339 C1.07244624,33.6767857 8.9605735e-05,36.3421875 8.9605735e-05,39.1727679 L8.9605735e-05,39.2504464 C8.9605735e-05,45.1330357 4.69968638,49.9191964 10.4758961,49.9191964 C13.7747312,49.9191964 16.5077061,48.6017857 18.8316308,45.8904018 L19.2218638,45.4345982 L17.7297043,44.0450893 L17.3018369,44.5303571 Z" id="Fill-1"></path>
                <path d="M25.0869848,32.6389509 L25.0869848,28.9652902 L23.0168683,28.9652902 L23.0168683,49.4579241 L25.0869848,49.4579241 L25.0869848,38.8646205 C25.0869848,35.3835938 27.7997984,30.527567 32.2196013,30.527567 L33.0417339,30.527567 L33.0417339,28.5092634 L32.3381048,28.503683 C29.0448701,28.503683 26.5645833,30.3266741 25.0869848,32.6389509" id="Fill-3"></path>
                <path d="M50.9269489,28.9657366 L50.9269489,40.4045759 C50.9269489,45.165067 48.4681676,47.8954241 44.1809812,47.8954241 C39.8940188,47.8954241 37.4347894,45.165067 37.4347894,40.4045759 L37.4347894,28.9657366 L35.365345,28.9657366 L35.365345,40.4815848 C35.365345,46.3032366 38.7134633,49.9190848 44.1039203,49.9190848 L44.2584901,49.9190848 C49.6482751,49.9190848 52.9961694,46.3032366 52.9961694,40.4815848 L52.9961694,28.9657366 L50.9269489,28.9657366 Z" id="Fill-5"></path>
                <polygon id="Fill-7" points="66.7783602 0.0239508929 66.7783602 13.7697098 80.6450717 13.7697098 80.6450717 15.7703795 64.7709677 15.7703795 64.7709677 6.69642857e-05"></polygon>
                <polygon id="Fill-9" points="60.2821685 13.7696205 60.2821685 4.09685268 62.2915771 4.10243304 62.2915771 15.7705134 50.416129 15.7705134 50.416129 13.7696205"></polygon>
                <polygon id="Fill-11" points="76.5496864 18.2332366 76.5496864 20.2352455 66.778405 20.2352455 66.778405 39.6283259 64.7710125 39.6283259 64.7710125 18.2332366"></polygon>
                <polygon id="Fill-13" points="62.2919579 18.2332366 62.2919579 28.5247545 62.2915099 34.1276562 60.2821013 34.1276562 60.2821013 20.2347991 46.3820116 20.2347991 46.3820116 18.2332366"></polygon>
            </g>
        </g>
    </g>
</svg>