<?xml version="1.0" encoding="UTF-8"?>
<svg width="96px" height="285px" viewBox="0 0 96 285" version="1.1" xmlns="http://www.w3.org/2000/svg" xmlns:xlink="http://www.w3.org/1999/xlink">
    <!-- Generator: Sketch 42 (36781) - http://www.bohemiancoding.com/sketch -->
    <title>Page 1</title>
    <desc>Created with Sketch.</desc>
    <defs>
        <polygon id="path-1" points="7.73638845 0.514565739 0.43051354 0.514565739 0.43051354 4.47197209 7.73638845 4.47197209 7.73638845 0.514565739"></polygon>
        <polygon id="path-3" points="0 284.990256 95.9531376 284.990256 95.9531376 0.514565739 0 0.514565739"></polygon>
    </defs>
    <g id="Page-1" stroke="none" stroke-width="1" fill="none" fill-rule="evenodd" opacity="0.65">
        <g id="goggles-lg-hud" transform="translate(-1311.000000, -361.000000)">
            <g id="Page-1" transform="translate(1311.000000, 360.000000)">
                <polygon id="Fill-1" fill="#FFFFFF" points="64.4628314 281.410469 77.6809062 285.293462 78.1256116 283.749764 64.8479781 280.064682"></polygon>
                <path d="M64.2734346,281.517341 L77.7893031,285.487413 L78.3134203,283.638935 L64.7419635,279.866772 L64.2734346,281.517341 Z M64.6506401,281.307556 L64.956375,280.250717 L77.9322442,283.852678 L77.5748916,285.103468 L64.6506401,281.307556 Z" id="Fill-2" fill="#FFFFFF"></path>
                <polygon id="Fill-3" fill="#FFFFFF" points="71.8814709 280.470002 78.5321995 282.263065 78.8299933 281.134979 72.1713236 279.381497"></polygon>
                <path d="M71.6920741,280.576873 L78.6405964,282.449101 L79.0217725,281.028107 L72.0613384,279.187545 L71.6920741,280.576873 Z M72.065309,280.359172 L72.2797205,279.563574 L78.6405964,281.249767 L78.4222143,282.073072 L72.065309,280.359172 Z" id="Fill-4" fill="#FFFFFF"></path>
                <polygon id="Fill-5" fill="#FFFFFF" points="72.5568673 277.915776 79.2234782 279.645509 79.5093602 278.529297 72.8387788 276.823314"></polygon>
                <path d="M72.3674704,278.033335 L79.3398163,279.834315 L79.70511,278.413322 L72.7287936,276.636091 L72.3674704,278.033335 Z M72.7446759,277.807718 L72.9471757,277.016078 L79.3239339,278.634981 L79.113493,279.454328 L72.7446759,277.807718 Z" id="Fill-6" fill="#FFFFFF"></path>
                <polygon id="Fill-7" fill="#FFFFFF" points="73.207249 275.365114 79.8897422 277.035473 80.1716537 275.915303 73.4812193 274.272651"></polygon>
                <path d="M73.0178521,275.47911 L80.0021097,277.220717 L80.3634329,275.80764 L73.3712341,274.081866 L73.0178521,275.47911 Z M73.3950576,275.253492 L73.5975574,274.457895 L79.9862274,276.033257 L79.7757864,276.852604 L73.3950576,275.253492 Z" id="Fill-8" fill="#FFFFFF"></path>
                <polygon id="Fill-9" fill="#FFFFFF" points="73.8397631 272.807326 80.534168 274.430187 80.8041677 273.310017 74.1057922 271.710905"></polygon>
                <path d="M73.6503662,272.91776 L80.6465355,274.611869 L80.9919764,273.194834 L73.9918364,271.524474 L73.6503662,272.91776 Z M74.0236011,272.696101 L74.2181597,271.896545 L80.6187414,273.424409 L80.4202122,274.243756 L74.0236011,272.696101 Z" id="Fill-10" fill="#FFFFFF"></path>
                <polygon id="Fill-11" fill="#FFFFFF" points="67.7596075 268.640531 81.1722409 271.787298 81.5137111 270.295058 68.089166 267.199747"></polygon>
                <path d="M81.3270937,270.410637 L81.0570939,271.602055 L67.9422544,268.522577 L68.2043129,267.382616 L81.3270937,270.410637 Z M67.57299,268.75611 L81.2873878,271.974125 L81.7003286,270.177104 L67.974019,267.014503 L67.57299,268.75611 Z" id="Fill-12" fill="#FFFFFF"></path>
                <polygon id="Fill-13" fill="#FFFFFF" points="75.1333794 267.296327 81.8555784 268.816275 82.1096958 267.704021 75.3914674 266.19199"></polygon>
                <path d="M74.947556,267.410323 L81.9675489,269.001519 L82.2931368,267.584484 L75.2691734,266.005163 L74.947556,267.410323 Z M75.320791,267.176789 L75.5074084,266.373275 L81.9238725,267.818018 L81.737255,268.637364 L75.320791,267.176789 Z" id="Fill-14" fill="#FFFFFF"></path>
                <polygon id="Fill-15" fill="#FFFFFF" points="75.7158641 264.72429 82.4460043 266.208614 82.6882099 265.088444 75.9540991 263.619953"></polygon>
                <path d="M75.5336143,264.841848 L82.5615483,266.389504 L82.8712539,264.964553 L75.8393493,263.436688 L75.5336143,264.841848 Z M75.9028786,264.604357 L76.0775843,263.804801 L82.5059601,265.206003 L82.3272838,266.02535 L75.9028786,264.604357 Z" id="Fill-16" fill="#FFFFFF"></path>
                <polygon id="Fill-17" fill="#FFFFFF" points="76.2769076 262.145128 83.014989 263.58987 83.2611652 262.477617 76.5191133 261.044749"></polygon>
                <path d="M76.0910843,262.266249 L83.1309301,263.778281 L83.4406356,262.353329 L76.3968193,260.861089 L76.0910843,262.266249 Z M76.4603486,262.032715 L76.6350543,261.225243 L83.0713713,262.590821 L82.8966656,263.410168 L76.4603486,262.032715 Z" id="Fill-18" fill="#FFFFFF"></path>
                <polygon id="Fill-19" fill="#FFFFFF" points="76.8308041 259.573091 83.5688855 260.978251 83.8071205 259.858081 77.061098 258.460837"></polygon>
                <path d="M76.6485543,259.69065 L83.6923707,261.167057 L83.9901645,259.738148 L76.938407,258.281531 L76.6485543,259.69065 Z M77.0138481,259.453158 L77.176642,258.645685 L83.6248707,259.979598 L83.4541356,260.798945 L77.0138481,259.453158 Z" id="Fill-20" fill="#FFFFFF"></path>
                <polygon id="Fill-21" fill="#FFFFFF" points="70.6132663 255.58679 84.1132526 258.329821 84.4269287 256.833622 70.9110602 254.134131"></polygon>
                <path d="M71.032163,254.311458 L84.2422966,256.955535 L83.9961204,258.150911 L70.7978985,255.467252 L71.032163,254.311458 Z M70.4326048,255.708702 L84.238326,258.515065 L84.6075903,256.714085 L70.7899573,253.947304 L70.4326048,255.708702 Z" id="Fill-22" fill="#FFFFFF"></path>
                <polygon id="Fill-23" fill="#FFFFFF" points="77.9636118 254.022906 84.7255167 255.356819 84.9438988 254.228732 78.1780233 252.910652"></polygon>
                <path d="M77.781362,254.144027 L84.8410607,255.537312 L85.1190016,254.112361 L78.0513617,252.734908 L77.781362,254.144027 Z M78.1426851,253.902577 L78.2975379,253.091146 L84.761649,254.349853 L84.598855,255.173158 L78.1426851,253.902577 Z" id="Fill-24" fill="#FFFFFF"></path>
                <polygon id="Fill-25" fill="#FFFFFF" points="78.4603319 251.436619 85.2301779 252.73095 85.4445895 251.606822 78.6747434 250.324366"></polygon>
                <path d="M78.2780821,251.554178 L85.3536631,252.91184 L85.6196922,251.486888 L78.5480818,250.145059 L78.2780821,251.554178 Z M78.6433758,251.312728 L78.7982286,250.501297 L85.2623397,251.728338 L85.1035163,252.547685 L78.6433758,251.312728 Z" id="Fill-26" fill="#FFFFFF"></path>
                <polygon id="Fill-27" fill="#FFFFFF" points="78.957052 248.84677 85.7308686 250.109436 85.9452801 248.985307 79.1714635 247.734517"></polygon>
                <path d="M78.7783757,248.967891 L85.8579273,250.285971 L86.127927,248.86102 L79.0483754,247.558773 L78.7783757,248.967891 Z M79.1396988,248.726441 L79.2945516,247.918969 L85.7666038,249.106428 L85.6077805,249.933692 L79.1396988,248.726441 Z" id="Fill-28" fill="#FFFFFF"></path>
                <polygon id="Fill-29" fill="#FFFFFF" points="79.4359044 246.256921 86.209721 247.487921 86.4161914 246.359835 79.6344336 245.14071"></polygon>
                <path d="M79.2572281,246.378042 L86.3407503,247.664457 L86.5988383,246.235547 L79.5073749,244.964966 L79.2572281,246.378042 Z M79.6145807,246.132634 L79.7614923,245.321203 L86.2375151,246.484914 L86.0906035,247.304261 L79.6145807,246.132634 Z" id="Fill-30" fill="#FFFFFF"></path>
                <polygon id="Fill-31" fill="#FFFFFF" points="73.1214844 242.43449 86.6889706 244.825241 86.9589703 243.325084 73.3835429 240.965998"></polygon>
                <path d="M86.7787058,243.449372 L86.5642942,244.648706 L73.2985724,242.309411 L73.5090134,241.1457 L86.7787058,243.449372 Z M73.2588666,240.789463 L72.9412198,242.554819 L86.814441,245.004943 L87.1400289,243.200005 L73.4097488,240.813212 L73.2588666,240.789463 Z" id="Fill-32" fill="#FFFFFF"></path>
                <polygon id="Fill-33" fill="#FFFFFF" points="80.4329181 240.678237 87.2226171 241.837989 87.4092345 240.713861 80.615565 239.562025"></polygon>
                <path d="M80.2542418,240.806483 L87.3457052,242.017691 L87.5879108,240.584824 L80.4885063,239.38549 L80.2542418,240.806483 Z M80.6076238,240.553158 L80.7386531,239.741727 L87.2305582,240.838148 L87.0955584,241.661454 L80.6076238,240.553158 Z" id="Fill-34" fill="#FFFFFF"></path>
                <polygon id="Fill-35" fill="#FFFFFF" points="80.8617412 238.081263 87.6554107 239.205392 87.8459988 238.081263 81.0443881 236.961093"></polygon>
                <path d="M80.6830649,238.209509 L87.7824694,239.381136 L88.0207045,237.952226 L80.9173294,236.788516 L80.6830649,238.209509 Z M81.0364469,237.952226 L81.1714468,237.140796 L87.6673225,238.209509 L87.5243815,239.028856 L81.0364469,237.952226 Z" id="Fill-36" fill="#FFFFFF"></path>
                <polygon id="Fill-37" fill="#FFFFFF" points="81.2869908 235.477165 88.0925721 236.577544 88.2791895 235.449458 81.4736082 234.364911"></polygon>
                <path d="M81.1154615,235.605411 L88.2188366,236.74933 L88.4570717,235.32042 L81.3457554,234.188376 L81.1154615,235.605411 Z M81.4648729,235.352086 L81.5998728,234.540655 L88.0997191,235.577703 L87.9647193,236.401008 L81.4648729,235.352086 Z" id="Fill-38" fill="#FFFFFF"></path>
                <polygon id="Fill-39" fill="#FFFFFF" points="81.7158139 232.876629 88.5213952 233.945342 88.6921303 232.813298 81.8786078 231.760417"></polygon>
                <path d="M81.5371376,233.004875 L88.6484539,234.121086 L88.866836,232.68426 L81.7555197,231.583881 L81.5371376,233.004875 Z M81.8905196,232.747592 L82.0136077,231.940119 L88.5174246,232.941543 L88.3863953,233.768807 L81.8905196,232.747592 Z" id="Fill-40" fill="#FFFFFF"></path>
                <polygon id="Fill-41" fill="#FFFFFF" points="75.3013351 229.203817 88.9244095 231.273955 89.1507328 229.769839 75.5236878 227.735326"></polygon>
                <path d="M75.1226588,229.335625 L89.0554387,231.453261 L89.3254385,229.640406 L75.3926585,227.558394 L75.1226588,229.335625 Z M75.4760408,229.078342 L75.6507465,227.910674 L88.9720565,229.897689 L88.7933802,231.100981 L75.4760408,229.078342 Z" id="Fill-42" fill="#FFFFFF"></path>
                <polygon id="Fill-43" fill="#FFFFFF" points="82.5591659 227.280133 89.376659 228.277599 89.5473941 227.145554 82.7259305 226.156005"></polygon>
                <path d="M82.3804896,227.408378 L89.5076883,228.453343 L89.7220998,227.016517 L82.5988718,225.987385 L82.3804896,227.408378 Z M82.7338716,227.147137 L82.8609303,226.331749 L89.3687178,227.277758 L89.2456297,228.101063 L82.7338716,227.147137 Z" id="Fill-44" fill="#FFFFFF"></path>
                <polygon id="Fill-45" fill="#FFFFFF" points="82.9451067 224.672472 89.7625998 225.638272 89.9214231 224.506228 83.0959889 223.552302"></polygon>
                <path d="M82.770004,224.80428 L89.8972026,225.81362 L90.0957318,224.376795 L82.9645626,223.37537 L82.770004,224.80428 Z M83.1194154,224.539081 L83.2266211,223.723692 L89.7463204,224.638036 L89.6311734,225.465299 L83.1194154,224.539081 Z" id="Fill-46" fill="#FFFFFF"></path>
                <polygon id="Fill-47" fill="#FFFFFF" points="83.3024593 222.057686 90.1239229 222.999737 90.2827463 221.863735 83.4533415 220.941474"></polygon>
                <path d="M83.1273565,222.193057 L90.2585257,223.170732 L90.4530844,221.733906 L83.3219152,220.768105 L83.1273565,222.193057 Z M83.4727974,221.923899 L83.5839737,221.112469 L90.1076435,221.999105 L89.9924966,222.82241 L83.4727974,221.923899 Z" id="Fill-48" fill="#FFFFFF"></path>
                <polygon id="Fill-49" fill="#FFFFFF" points="83.6526648 219.450025 90.4860402 220.356453 90.640893 219.22045 83.8114882 218.329855"></polygon>
                <path d="M83.4847091,219.581833 L90.6158783,220.527843 L90.8144075,219.091017 L83.6752972,218.156882 L83.4847091,219.581833 Z M83.8301499,219.312676 L83.9413263,218.501245 L90.4689667,219.356216 L90.3538198,220.179521 L83.8301499,219.312676 Z" id="Fill-50" fill="#FFFFFF"></path>
                <polygon id="Fill-51" fill="#FFFFFF" points="77.1810096 215.930396 90.851731 217.683878 91.0343779 216.171846 77.3636565 214.45003"></polygon>
                <path d="M77.0130539,216.062204 L90.9855397,217.859226 L91.2078924,216.038455 L77.2274655,214.277057 L77.0130539,216.062204 Z M77.3505536,215.793046 L77.4934946,214.625378 L90.8624516,216.303654 L90.71554,217.510904 L77.3505536,215.793046 Z" id="Fill-52" fill="#FFFFFF"></path>
                <polygon id="Fill-53" fill="#FFFFFF" points="84.3780906 213.832155 91.2154365 214.671293 91.3504364 213.539248 84.5130904 212.711985"></polygon>
                <path d="M84.2029878,213.967525 L91.3500393,214.842287 L91.524745,213.405461 L84.3776935,212.538616 L84.2029878,213.967525 Z M84.5484286,213.698368 L84.6516638,212.882979 L91.1793042,213.674619 L91.0800396,214.501882 L84.5484286,213.698368 Z" id="Fill-54" fill="#FFFFFF"></path>
                <polygon id="Fill-55" fill="#FFFFFF" points="84.6925608 211.217369 91.5338774 212.024842 91.6728478 210.892797 84.8275607 210.093241"></polygon>
                <path d="M84.5210316,211.349177 L91.6720537,212.20019 L91.8427888,210.759406 L84.6957373,209.924226 L84.5210316,211.349177 Z M84.8664724,211.083978 L84.965737,210.264631 L91.5013186,211.028563 L91.3980834,211.855827 L84.8664724,211.083978 Z" id="Fill-56" fill="#FFFFFF"></path>
                <polygon id="Fill-57" fill="#FFFFFF" points="85.0106046 208.599021 91.8558918 209.382745 91.9908916 208.246742 85.1416339 207.474893"></polygon>
                <path d="M84.8390754,208.734392 L91.9900975,209.549781 L92.1648032,208.108997 L85.0058399,207.309441 L84.8390754,208.734392 Z M85.1845162,208.465234 L85.2798102,207.649846 L91.8193624,208.382112 L91.7161272,209.209376 L85.1845162,208.465234 Z" id="Fill-58" fill="#FFFFFF"></path>
                <polygon id="Fill-59" fill="#FFFFFF" points="85.3000602 205.980674 92.1493179 206.732731 92.2684355 205.596728 85.4231483 204.856545"></polygon>
                <path d="M85.1321045,206.116044 L92.2910678,206.903725 L92.4379794,205.458983 L85.2829867,204.687134 L85.1321045,206.116044 Z M85.4696042,205.842928 L85.556957,205.027539 L92.1004798,205.732099 L92.0131269,206.56332 L85.4696042,205.842928 Z" id="Fill-60" fill="#FFFFFF"></path>
                <polygon id="Fill-61" fill="#FFFFFF" points="78.7283463 202.607101 92.4348029 204.051844 92.5896557 202.535854 78.8871697 201.126735"></polygon>
                <path d="M78.5568171,202.746034 L92.5690087,204.222442 L92.7595967,202.397713 L78.7513757,200.956929 L78.5568171,202.746034 Z M78.8982873,202.472918 L79.0213754,201.297334 L92.4220971,202.674787 L92.2950384,203.878079 L78.8982873,202.472918 Z" id="Fill-62" fill="#FFFFFF"></path>
                <polygon id="Fill-63" fill="#FFFFFF" points="85.8932655 200.348554 92.7504644 201.03728 92.8656113 199.901277 86.012383 199.224425"></polygon>
                <path d="M85.7253098,200.483924 L92.8882437,201.204316 L93.0351553,199.759574 L85.876192,199.055014 L85.7253098,200.483924 Z M86.0628094,200.210808 L86.1501623,199.39542 L92.7016262,200.036648 L92.6103028,200.867869 L86.0628094,200.210808 Z" id="Fill-64" fill="#FFFFFF"></path>
                <polygon id="Fill-65" fill="#FFFFFF" points="86.1612799 197.726643 93.0224494 198.383704 93.121714 197.247701 86.2645151 196.602515"></polygon>
                <path d="M85.9968977,197.865576 L93.1638022,198.554302 L93.2908609,197.105602 L86.1239564,196.432708 L85.9968977,197.865576 Z M86.3304268,197.588502 L86.4058679,196.773113 L92.9533612,197.382676 L92.8818907,198.213897 L86.3304268,197.588502 Z" id="Fill-66" fill="#FFFFFF"></path>
                <polygon id="Fill-67" fill="#FFFFFF" points="86.3935591 195.101171 93.2586992 195.730524 93.3579638 194.590563 86.4967943 193.977042"></polygon>
                <path d="M86.2291769,195.240103 L93.3960814,195.897164 L93.5271107,194.452422 L86.3562356,193.807236 L86.2291769,195.240103 Z M86.562706,194.963029 L86.6381471,194.147641 L93.1856404,194.729496 L93.1181405,195.560717 L86.562706,194.963029 Z" id="Fill-68" fill="#FFFFFF"></path>
                <polygon id="Fill-69" fill="#FFFFFF" points="86.6294118 192.475698 93.4905813 193.073386 93.5898459 191.937383 86.7286764 191.355528"></polygon>
                <path d="M86.4614561,192.618193 L93.6323311,193.243588 L93.7633604,191.794888 L86.5885148,191.185325 L86.4614561,192.618193 Z M86.7989557,192.337161 L86.8704263,191.521772 L93.4258608,192.07592 L93.3504197,192.907141 L86.7989557,192.337161 Z" id="Fill-70" fill="#FFFFFF"></path>
                <polygon id="Fill-71" fill="#FFFFFF" points="79.996948 189.255308 93.7311987 190.387353 93.8661985 188.871363 80.1279772 187.770984"></polygon>
                <path d="M79.8289922,189.394241 L93.7141252,190.542118 L93.868978,190.553993 L94.0317719,188.733222 L80.1386978,187.61701 L79.9878156,187.605135 L79.8289922,189.394241 Z M80.1664919,189.113209 L80.2697271,187.937624 L93.6982428,189.014254 L93.5910371,190.221504 L80.1664919,189.113209 Z" id="Fill-72" fill="#FFFFFF"></path>
                <polygon id="Fill-73" fill="#FFFFFF" points="87.1046907 186.832891 93.977772 187.367247 94.0571836 186.227286 87.188073 185.708762"></polygon>
                <path d="M86.9403085,186.975386 L94.1191248,187.533492 L94.2223599,186.084791 L87.0435437,185.542518 L86.9403085,186.975386 Z M87.2738376,186.694354 L87.3294258,185.875007 L93.8928015,186.369782 L93.8332427,187.204961 L87.2738376,186.694354 Z" id="Fill-74" fill="#FFFFFF"></path>
                <polygon id="Fill-75" fill="#FFFFFF" points="87.2940876 184.207418 94.1671688 184.710109 94.2465805 183.570148 87.3774699 183.079332"></polygon>
                <path d="M87.1261319,184.349913 L94.3089187,184.872395 L94.4121539,183.427653 L87.2333376,182.913087 L87.1261319,184.349913 Z M87.4636315,184.060965 L87.5192197,183.245576 L94.0786248,183.712643 L94.0230366,184.543865 L87.4636315,184.060965 Z" id="Fill-76" fill="#FFFFFF"></path>
                <polygon id="Fill-77" fill="#FFFFFF" points="87.4834845 181.578383 94.3565657 182.053367 94.4359774 180.913406 87.5668667 180.450296"></polygon>
                <path d="M87.3191023,181.720878 L94.4979185,182.215653 L94.6011537,180.766952 L87.4223375,180.284052 L87.3191023,181.720878 Z M87.6526313,181.435888 L87.7082195,180.616541 L94.2715952,181.055901 L94.2120364,181.887122 L87.6526313,181.435888 Z" id="Fill-78" fill="#FFFFFF"></path>
                <polygon id="Fill-79" fill="#FFFFFF" points="87.6693078 178.949348 94.5463596 179.396624 94.6257713 178.256663 87.7526901 177.82522"></polygon>
                <path d="M87.5084991,179.091843 L94.6873154,179.554952 L94.7945211,178.11021 L87.6077637,177.655017 L87.5084991,179.091843 Z M87.8380576,178.806853 L87.8936458,177.987506 L94.4609921,178.3952 L94.4054039,179.23038 L87.8380576,178.806853 Z" id="Fill-80" fill="#FFFFFF"></path>
                <polygon id="Fill-81" fill="#FFFFFF" points="80.9582264 175.875015 94.71233 176.702279 94.7957123 175.178373 81.0376381 174.390691"></polygon>
                <path d="M80.7974177,176.017511 L94.7063742,176.856648 L94.8612269,176.860607 L94.956521,175.035877 L80.8927118,174.224447 L80.7974177,176.017511 Z M81.1230056,175.73252 L81.1825644,174.549019 L94.6309331,175.320868 L94.5674037,176.536034 L81.1230056,175.73252 Z" id="Fill-82" fill="#FFFFFF"></path>
                <polygon id="Fill-83" fill="#FFFFFF" points="87.9980722 173.295854 94.875124 173.671882 94.9386533 172.531921 88.0576309 172.167767"></polygon>
                <path d="M87.83369,173.441911 L95.024418,173.837731 L95.0998591,172.38903 L87.9131017,172.005085 L87.83369,173.441911 Z M88.1592779,173.149004 L88.2029543,172.329657 L94.7742711,172.677979 L94.7266241,173.5092 L88.1592779,173.149004 Z" id="Fill-84" fill="#FFFFFF"></path>
                <polygon id="Fill-85" fill="#FFFFFF" points="88.1410132 170.663256 95.018065 171.011578 95.0815944 169.871616 88.1966014 169.539128"></polygon>
                <path d="M87.976631,170.809314 L95.167359,171.173468 L95.2467707,169.720809 L88.0560427,169.372488 L87.976631,170.809314 Z M88.3022189,170.516407 L88.3458953,169.69706 L94.9172122,170.017674 L94.8695652,170.852854 L88.3022189,170.516407 Z" id="Fill-86" fill="#FFFFFF"></path>
                <g id="Group-438" transform="translate(0.000000, 0.495574)">
                    <path d="M88.3105571,166.97302 C88.3264395,166.691988 88.3383512,166.406998 88.3383512,166.406998 L95.2193736,166.715737 C95.2193736,166.715737 95.2074619,167.000727 95.1915795,167.285718 C95.1756972,167.570708 95.1637855,167.855698 95.1637855,167.855698 L88.2787925,167.539042 L88.3105571,166.97302 Z" id="Fill-87" fill="#FFFFFF"></path>
                    <path d="M88.4848658,166.571263 L95.0601532,166.860211 L95.0204474,167.695391 L88.4451599,167.39061 L88.4848658,166.571263 Z M88.1156015,167.683517 L95.3103,168.016005 L95.3817705,166.567305 L88.1910426,166.246691 L88.1156015,167.683517 Z" id="Fill-89" fill="#FFFFFF"></path>
                    <polygon id="Fill-91" fill="#FFFFFF" points="88.3919541 164.905257 95.2729765 165.194206 95.3166529 164.050287 88.43166 163.777171"></polygon>
                    <path d="M88.581748,163.936686 L95.1530649,164.197927 L95.1252708,165.033107 L88.5499834,164.756033 L88.581748,163.936686 Z M88.2323366,165.052898 L95.4270352,165.353721 L95.4746822,163.905021 L88.2839542,163.612114 L88.2323366,165.052898 Z" id="Fill-93" fill="#FFFFFF"></path>
                    <polygon id="Fill-95" fill="#FFFFFF" points="81.6022551 161.98292 95.3722411 162.493527 95.4238587 160.973579 81.6538727 160.494637"></polygon>
                    <path d="M81.8039608,160.654944 L95.2682118,161.122012 L95.2245354,162.337179 L81.7602844,161.834487 L81.8039608,160.654944 Z M81.4386671,162.131352 L95.5223292,162.657793 L95.5858586,160.825147 L81.506167,160.33433 L81.4386671,162.131352 Z" id="Fill-97" fill="#FFFFFF"></path>
                    <polygon id="Fill-99" fill="#FFFFFF" points="88.5936598 159.246222 95.4786528 159.467881 95.5183586 158.32792 88.6333656 158.118135"></polygon>
                    <path d="M88.7834537,158.275672 L95.3587411,158.473581 L95.3269765,159.308761 L88.751689,159.098977 L88.7834537,158.275672 Z M88.4300717,159.395842 L95.6287409,159.625417 L95.6763879,158.176717 L88.4856599,157.959016 L88.4300717,159.395842 Z" id="Fill-101" fill="#FFFFFF"></path>
                    <polygon id="Fill-103" fill="#FFFFFF" points="88.6865715 156.611645 95.5715645 156.801639 95.6112703 155.661678 88.7262773 155.483559"></polygon>
                    <path d="M88.8767624,155.641491 L95.4520499,155.811693 L95.4242558,156.646873 L88.8449978,156.460838 L88.8767624,155.641491 Z M88.527351,156.761661 L95.7260202,156.959571 L95.7736672,155.51087 L88.5789686,155.324835 L88.527351,156.761661 Z" id="Fill-105" fill="#FFFFFF"></path>
                    <polygon id="Fill-107" fill="#FFFFFF" points="88.7524832 153.977464 95.6374762 154.13975 95.6573291 152.995831 88.7683655 152.849378"></polygon>
                    <path d="M88.9232183,153.005331 L95.4985057,153.147826 L95.486594,153.979048 L88.9073359,153.828636 L88.9232183,153.005331 Z M88.5936598,154.129459 L95.7883584,154.295703 L95.8121819,152.843045 L88.6174833,152.688675 L88.5936598,154.129459 Z" id="Fill-109" fill="#FFFFFF"></path>
                    <polygon id="Fill-111" fill="#FFFFFF" points="88.7953655 151.343284 95.6803585 151.473904 95.7002114 150.329985 88.8112478 150.211239"></polygon>
                    <path d="M88.9657035,150.369171 L95.5449615,150.483959 L95.5290792,151.31518 L88.9498212,151.192476 L88.9657035,150.369171 Z M88.636145,151.493299 L95.8348142,151.631836 L95.8586377,150.179178 L88.6599685,150.056473 L88.636145,151.493299 Z" id="Fill-113" fill="#FFFFFF"></path>
                    <polygon id="Fill-115" fill="#FFFFFF" points="81.9472989 148.577691 95.7291966 148.775601 95.7530202 147.251694 81.975093 147.089408"></polygon>
                    <path d="M82.1259752,147.245757 L95.5981674,147.404085 L95.5743439,148.619252 L82.1061223,148.4253 L82.1259752,147.245757 Z M81.7924461,148.730081 L95.8800788,148.931949 L95.9118435,147.099304 L81.8202402,146.933059 L81.7924461,148.730081 Z" id="Fill-117" fill="#FFFFFF"></path>
                    <polygon id="Fill-119" fill="#FFFFFF" points="88.8882771 145.68029 95.7772407 145.747579 95.7931231 144.60366 88.9041595 144.552203"></polygon>
                    <path d="M89.0590123,144.708156 L95.6382703,144.755655 L95.6223879,145.590834 L89.0431299,145.527503 L89.0590123,144.708156 Z M88.7294538,145.836243 L95.9281229,145.899574 L95.9519464,144.450873 L88.7532773,144.395459 L88.7294538,145.836243 Z" id="Fill-121" fill="#FFFFFF"></path>
                    <polygon id="Fill-123" fill="#FFFFFF" points="88.9037624 141.915252 88.9117036 143.047296 95.7966966 143.078962 95.792726 141.935043"></polygon>
                    <path d="M89.0625858,142.893323 L89.0625858,142.070017 L95.6418438,142.089808 L95.6418438,142.924988 L89.0625858,142.893323 Z M88.7528802,141.761278 L88.7568508,143.198104 L95.9515494,143.233728 L95.9475788,141.781069 L88.7528802,141.761278 Z" id="Fill-125" fill="#FFFFFF"></path>
                    <polygon id="Fill-127" fill="#FFFFFF" points="88.8958213 139.281071 88.8997918 140.409157 95.7887554 140.413116 95.7847848 139.269196"></polygon>
                    <path d="M89.0550417,140.257163 L89.0510711,139.433857 L95.6303291,139.425941 L95.6342997,140.257163 L89.0550417,140.257163 Z M88.7413655,139.125118 L88.7453361,140.565902 L95.9440053,140.565902 L95.9400347,139.113243 L88.7413655,139.125118 Z" id="Fill-129" fill="#FFFFFF"></path>
                    <polygon id="Fill-131" fill="#FFFFFF" points="88.8882771 136.64689 88.8922477 137.774977 95.7812113 137.747269 95.7772407 136.60335"></polygon>
                    <path d="M89.0471005,137.621003 L89.0431299,136.797698 L95.6223879,136.758116 L95.6263585,137.593295 L89.0471005,137.621003 Z M88.7334244,136.492916 L88.7373949,137.929742 L95.9360641,137.898077 L95.9281229,136.449376 L88.7334244,136.492916 Z" id="Fill-133" fill="#FFFFFF"></path>
                    <polygon id="Fill-135" fill="#FFFFFF" points="81.9862106 133.6822 81.9941518 135.170482 95.772079 135.047778 95.7681084 133.523872"></polygon>
                    <path d="M82.145034,135.013738 L82.1410634,133.834195 L95.6132556,133.679825 L95.6172262,134.894992 L82.145034,135.013738 Z M81.8313579,133.529414 L81.839299,135.326435 L95.9269317,135.199773 L95.9229612,133.367127 L81.8313579,133.529414 Z" id="Fill-137" fill="#FFFFFF"></path>
                    <polygon id="Fill-139" fill="#FFFFFF" points="88.8418213 130.983896 88.8656448 132.111983 95.7546084 132.016986 95.7268143 130.873067"></polygon>
                    <path d="M89.01613,131.95603 L88.996277,131.132725 L95.575535,131.029811 L95.595388,131.864991 L89.01613,131.95603 Z M88.6826009,130.831902 L88.7143656,132.268727 L95.9130347,132.169773 L95.88127,130.717114 L88.6826009,130.831902 Z" id="Fill-141" fill="#FFFFFF"></path>
                    <polygon id="Fill-143" fill="#FFFFFF" points="88.7759096 128.349716 88.8037037 129.477802 95.6926673 129.347182 95.6648732 128.207221"></polygon>
                    <path d="M88.9541888,129.31987 L88.9343359,128.500523 L95.5135939,128.365944 L95.5334468,129.197166 L88.9541888,129.31987 Z M88.6166892,128.195742 L88.6524244,129.636526 L95.847123,129.501947 L95.8153583,128.049288 L88.6166892,128.195742 Z" id="Fill-145" fill="#FFFFFF"></path>
                    <polygon id="Fill-147" fill="#FFFFFF" points="88.7135714 125.715535 88.7373949 126.843621 95.6263585 126.685293 95.5985644 125.541374"></polygon>
                    <path d="M88.8922477,126.685689 L88.8684242,125.866342 L95.4476822,125.700098 L95.4675351,126.535278 L88.8922477,126.685689 Z M88.5547481,125.565519 L88.5904833,127.002345 L95.7851819,126.836101 L95.7534172,125.383442 L88.5547481,125.565519 Z" id="Fill-149" fill="#FFFFFF"></path>
                    <polygon id="Fill-151" fill="#FFFFFF" points="88.6476597 123.079375 88.6754538 124.21142 95.5604468 124.017468 95.5326527 122.873549"></polygon>
                    <path d="M88.826336,124.051508 L88.8064831,123.228203 L95.3817705,123.034252 L95.405594,123.869431 L88.826336,124.051508 Z M88.4888364,122.931338 L88.5245716,124.368164 L95.7192702,124.166296 L95.6875055,122.717596 L88.4888364,122.931338 Z" id="Fill-153" fill="#FFFFFF"></path>
                    <path d="M95.452844,119.797633 L81.682858,120.280533 C81.682858,120.280533 81.6987403,120.652604 81.7066815,121.024674 C81.7146227,121.396745 81.7265344,121.768816 81.7265344,121.768816 L95.4965204,121.321539 L95.4806381,120.557607 C95.4726969,120.17762 95.452844,119.797633 95.452844,119.797633" id="Fill-155" fill="#FFFFFF"></path>
                    <path d="M81.8778137,121.608509 L81.8619314,121.022695 C81.8579608,120.797078 81.8500196,120.571461 81.846049,120.428966 L95.3063294,119.95794 C95.3142706,120.100435 95.3222118,120.330011 95.3261824,120.563544 L95.3380941,121.169149 L81.8778137,121.608509 Z M95.6080938,119.791696 L95.6001527,119.637326 L81.5204611,120.128143 L81.5284023,120.290429 C81.5284023,120.290429 81.5482552,120.658541 81.5522258,121.026654 L81.5760493,121.925164 L95.6557408,121.469972 L95.6358879,120.555628 C95.6279467,120.171683 95.6080938,119.791696 95.6080938,119.791696 L95.6080938,119.791696 Z" id="Fill-157" fill="#FFFFFF"></path>
                    <polygon id="Fill-159" fill="#FFFFFF" points="88.4499246 117.422318 88.5015422 118.550405 95.3865352 118.289164 95.3309471 117.149203"></polygon>
                    <path d="M88.6476597,118.390494 L88.6079539,117.567188 L95.1832413,117.309906 L95.2229472,118.141127 L88.6476597,118.390494 Z M88.2863366,117.274282 L88.3538365,118.711108 L95.5445645,118.437992 L95.4810351,116.989292 L88.2863366,117.274282 Z" id="Fill-161" fill="#FFFFFF"></path>
                    <polygon id="Fill-163" fill="#FFFFFF" points="88.330013 114.789721 88.3816306 115.917807 95.262653 115.624901 95.2110354 114.480981"></polygon>
                    <path d="M88.5277481,115.756313 L88.4880423,114.933008 L95.0633297,114.644059 L95.0990649,115.479239 L88.5277481,115.756313 Z M88.1664249,114.640101 L88.2339249,116.076927 L95.4246528,115.772146 L95.3611235,114.323445 L88.1664249,114.640101 Z" id="Fill-165" fill="#FFFFFF"></path>
                    <polygon id="Fill-167" fill="#FFFFFF" points="88.2057337 112.157519 88.2613219 113.285606 95.1423443 112.961033 95.0867561 111.821072"></polygon>
                    <path d="M88.4074394,113.123715 L88.3677336,112.30041 L94.943021,111.979796 L94.9787562,112.811018 L88.4074394,113.123715 Z M88.0461162,112.011462 L88.1136162,113.448288 L95.3003736,113.107883 L95.2368442,111.655224 L88.0461162,112.011462 Z" id="Fill-169" fill="#FFFFFF"></path>
                    <polygon id="Fill-171" fill="#FFFFFF" points="88.085425 109.523339 88.1410132 110.651425 95.018065 110.295187 94.9664474 109.155226"></polygon>
                    <path d="M88.2871307,110.489535 L88.2474249,109.670188 L94.8227123,109.317908 L94.8544769,110.14913 L88.2871307,110.489535 Z M87.9258075,109.377281 L87.9933075,110.814107 L95.1800649,110.442036 L95.1165355,108.993336 L87.9258075,109.377281 Z" id="Fill-173" fill="#FFFFFF"></path>
                    <polygon id="Fill-175" fill="#FFFFFF" points="81.0360498 106.894699 81.1353144 108.379023 94.8933887 107.599258 94.7941241 106.075352"></polygon>
                    <path d="M81.2806378,108.214758 L81.2012261,107.039173 L94.6456242,106.239617 L94.7290065,107.454784 L81.2806378,108.214758 Z M80.8676971,106.750225 L80.9947558,108.543289 L95.0625356,107.743733 L94.9354769,105.915045 L80.8676971,106.750225 Z" id="Fill-177" fill="#FFFFFF"></path>
                    <polygon id="Fill-179" fill="#FFFFFF" points="87.7364107 103.873803 87.8118518 104.997931 94.6889036 104.570445 94.6094919 103.430484"></polygon>
                    <path d="M87.9575722,104.836436 L87.8980134,104.017089 L94.4693303,103.59752 L94.5209479,104.428742 L87.9575722,104.836436 Z M87.568455,103.728141 L87.6677196,105.164967 L94.8505064,104.71769 L94.7552123,103.26899 L87.568455,103.728141 Z" id="Fill-181" fill="#FFFFFF"></path>
                    <polygon id="Fill-183" fill="#FFFFFF" points="87.5545579 101.24358 87.6339696 102.371666 94.5070508 101.912515 94.4276391 100.768596"></polygon>
                    <path d="M87.7753224,102.205818 L87.7197342,101.386471 L94.2870805,100.935236 L94.3386981,101.766458 L87.7753224,102.205818 Z M87.3901757,101.101481 L87.4894403,102.534348 L94.6682565,102.055406 L94.5729625,100.606706 L87.3901757,101.101481 Z" id="Fill-185" fill="#FFFFFF"></path>
                    <polygon id="Fill-187" fill="#FFFFFF" points="87.3758816 98.6149407 87.4552933 99.7430271 94.324404 99.2482523 94.2449923 98.1082913"></polygon>
                    <path d="M87.5970432,99.5755953 L87.5374844,98.7562483 L94.1048307,98.2733482 L94.1564482,99.1045698 L87.5970432,99.5755953 Z M87.2079259,98.4712581 L87.3071905,99.9041257 L94.4899773,99.3935182 L94.3907127,97.9408595 L87.2079259,98.4712581 Z" id="Fill-189" fill="#FFFFFF"></path>
                    <polygon id="Fill-191" fill="#FFFFFF" points="87.1936318 95.9863014 87.2730435 97.1143878 94.1421541 96.5879475 94.0627425 95.4479864"></polygon>
                    <path d="M87.4147933,96.946956 L87.3592052,96.127609 L93.9225808,95.6130433 L93.9741984,96.4442649 L87.4147933,96.946956 Z M87.0296467,95.8426188 L87.1289113,97.2754865 L94.3037569,96.7292551 L94.2084629,95.2805547 L87.0296467,95.8426188 Z" id="Fill-193" fill="#FFFFFF"></path>
                    <polygon id="Fill-195" fill="#FFFFFF" points="80.0628597 93.5318228 80.1978595 95.0121888 93.9321102 93.895977 93.7931398 92.376029"></polygon>
                    <path d="M80.3419917,94.8443612 L80.234786,93.6727346 L93.6553605,92.54069 L93.7665369,93.7558568 L80.3419917,94.8443612 Z M79.8972863,93.3917026 L80.0600802,95.1768499 L94.1040365,94.0368889 L93.937272,92.2082014 L79.8972863,93.3917026 Z" id="Fill-197" fill="#FFFFFF"></path>
                    <polygon id="Fill-199" fill="#FFFFFF" points="86.6897647 90.3446818 86.7929999 91.46881 93.6581399 90.8750803 93.5549047 89.7351193"></polygon>
                    <path d="M86.9339556,91.3013782 L86.8585145,90.4859894 L93.413949,89.9001761 L93.4854195,90.7313977 L86.9339556,91.3013782 Z M86.5210148,90.2049574 L86.6520441,91.6338669 L93.8229192,91.0124298 L93.6918899,89.5676875 L86.5210148,90.2049574 Z" id="Fill-201" fill="#FFFFFF"></path>
                    <polygon id="Fill-203" fill="#FFFFFF" points="86.4491473 87.7219798 86.5484119 88.846108 93.4135519 88.2167545 93.3103168 87.0767935"></polygon>
                    <path d="M86.6937353,88.6786762 L86.6143236,87.8593292 L93.1697581,87.2458086 L93.2451992,88.0770301 L86.6937353,88.6786762 Z M86.2807945,87.5822554 L86.4118238,89.0111649 L93.5787282,88.354104 L93.447699,86.9093617 L86.2807945,87.5822554 Z" id="Fill-205" fill="#FFFFFF"></path>
                    <polygon id="Fill-207" fill="#FFFFFF" points="86.2049563 85.0976945 86.3081915 86.2218227 93.169361 85.5568455 93.0661258 84.4208426"></polygon>
                    <path d="M86.4491473,86.0524119 L86.3737062,85.2330649 L92.9251701,84.5878786 L92.9966406,85.4191002 L86.4491473,86.0524119 Z M86.0362065,84.9599492 L86.1712064,86.3888587 L93.3341403,85.696174 L93.203111,84.2514318 L86.0362065,84.9599492 Z" id="Fill-209" fill="#FFFFFF"></path>
                    <path d="M92.815979,81.7617252 L85.9587801,82.4742009 C85.9587801,82.4742009 85.9905448,82.7512747 86.0183389,83.036265 C86.0421624,83.317297 86.0699565,83.5983291 86.0699565,83.5983291 L92.9231848,82.9016863 L92.8715672,82.3317057 C92.8477437,82.0467155 92.815979,81.7617252 92.815979,81.7617252" id="Fill-211" fill="#FFFFFF"></path>
                    <path d="M86.2089269,83.4277308 L86.1692211,83.0200364 C86.1573093,82.8735831 86.141427,82.7271297 86.1295152,82.6083838 L92.6770086,81.9315319 C92.6889203,82.0384033 92.7048027,82.192773 92.7167144,82.3471427 L92.7524497,82.7627535 L86.2089269,83.4277308 Z M85.8873096,82.3273517 L85.7999568,82.4540141 L85.8078979,82.5213034 C85.8198097,82.6044256 85.8436332,82.8260847 85.8634861,83.0477438 L85.930986,83.7681358 L93.0899493,83.0398274 L93.02642,82.3194353 C93.0105376,82.1254836 92.9906847,81.9354901 92.9748024,81.812786 L93.2011257,81.5673777 L85.8873096,82.3273517 Z" id="Fill-213" fill="#FFFFFF"></path>
                    <polygon id="Fill-215" fill="#FFFFFF" points="78.760111 80.1998203 78.9308461 81.6762282 92.6333322 80.2116949 92.4546559 78.6996633"></polygon>
                    <path d="M79.0702136,81.5064215 L78.9312432,80.3387531 L92.3200531,78.8702616 L92.4629941,80.077512 L79.0702136,81.5064215 Z M78.5897729,80.0656374 L78.7962433,81.8468265 L92.8044643,80.3506277 L92.5940234,78.5298566 L78.5897729,80.0656374 Z" id="Fill-217" fill="#FFFFFF"></path>
                    <polygon id="Fill-219" fill="#FFFFFF" points="85.305222 76.8488099 85.4362512 77.9689799 92.2815384 77.2010895 92.1505091 76.0650867"></polygon>
                    <path d="M85.5728393,77.799569 L85.4775453,76.9841803 L92.0131269,76.2321226 L92.1084209,77.0633442 L85.5728393,77.799569 Z M85.1360751,76.7150228 L85.3028396,78.1399741 L92.4538617,77.3364599 L92.2831266,75.8956758 L85.1360751,76.7150228 Z" id="Fill-221" fill="#FFFFFF"></path>
                    <polygon id="Fill-223" fill="#FFFFFF" points="84.9990899 74.2296703 85.1301192 75.3537985 91.9754064 74.5502843 91.8404065 73.4103233"></polygon>
                    <path d="M85.2667073,75.1808253 L85.1753839,74.3654365 L91.7069949,73.5856715 L91.8022889,74.4129348 L85.2667073,75.1808253 Z M84.829943,74.096279 L84.9967076,75.5212303 L92.1437591,74.6860505 L91.9769946,73.2413082 L84.829943,74.096279 Z" id="Fill-225" fill="#FFFFFF"></path>
                    <polygon id="Fill-227" fill="#FFFFFF" points="84.6965314 71.6129056 84.8235901 72.7370338 91.6649067 71.8978958 91.5338774 70.761893"></polygon>
                    <path d="M84.9601782,72.5620815 L84.8688548,71.7466927 L91.3964952,70.9313039 L91.4957598,71.7625255 L84.9601782,72.5620815 Z M84.5234139,71.4814934 L84.6901785,72.9064447 L91.8332594,72.0316829 L91.6664949,70.5869407 L84.5234139,71.4814934 Z" id="Fill-229" fill="#FFFFFF"></path>
                    <path d="M91.2070983,68.1110878 L84.3737229,68.9977242 C84.3737229,68.9977242 84.4134288,69.2787562 84.4531346,69.5558301 C84.4888699,69.8368621 84.5166639,70.1178942 84.5166639,70.1178942 L91.3540099,69.2470906 L91.28651,68.6771101 C91.2468042,68.3960781 91.2070983,68.1110878 91.2070983,68.1110878" id="Fill-231" fill="#FFFFFF"></path>
                    <path d="M84.6540462,69.9449209 L84.550811,69.1295322 L91.0705102,68.286436 L91.1856572,69.1136994 L84.6540462,69.9449209 Z M84.197429,68.8643329 L84.388017,70.2892842 L91.5271274,69.3788986 L91.3405099,67.9381146 L84.197429,68.8643329 Z" id="Fill-233" fill="#FFFFFF"></path>
                    <polygon id="Fill-235" fill="#FFFFFF" points="77.1158921 66.9105664 77.326333 68.383016 90.9851427 66.5701613 90.7667605 65.0581297"></polygon>
                    <path d="M77.4573623,68.2096469 L77.2905978,67.0459367 L90.6357312,65.2330821 L90.8104369,66.4363742 L77.4573623,68.2096469 Z M76.9411864,66.7807375 L77.1992743,68.5540102 L91.1598484,66.7015735 L90.9017604,64.8847606 L76.9411864,66.7807375 Z" id="Fill-237" fill="#FFFFFF"></path>
                    <polygon id="Fill-239" fill="#FFFFFF" points="83.5760325 63.3913325 83.7348559 64.5115026 90.5602901 63.561535 90.3974962 62.4294904"></polygon>
                    <path d="M83.8666793,64.3361544 L83.7515324,63.5207656 L90.2632904,62.6064219 L90.382408,63.429727 L83.8666793,64.3361544 Z M83.402121,63.2595245 L83.6046208,64.6805176 L90.7318194,63.6949263 L90.5293196,62.2541422 L83.402121,63.2595245 Z" id="Fill-241" fill="#FFFFFF"></path>
                    <polygon id="Fill-243" fill="#FFFFFF" points="83.2035918 60.7820884 83.3624151 61.9022584 90.1838788 60.9206253 90.0210848 59.7885807"></polygon>
                    <path d="M83.4946356,61.725327 L83.3794886,60.9138964 L89.8872761,59.9599707 L90.0063936,60.7872341 L83.4946356,61.725327 Z M83.0300772,60.6526553 L83.232577,62.0736484 L90.3597756,61.0524333 L90.1533053,59.6116493 L83.0300772,60.6526553 Z" id="Fill-245" fill="#FFFFFF"></path>
                    <polygon id="Fill-247" fill="#FFFFFF" points="82.831548 58.1728443 82.9903714 59.2930143 89.8038939 58.2757574 89.6450705 57.1437128"></polygon>
                    <path d="M83.1221948,59.1160829 L83.0070478,58.3006941 L89.5108647,57.319061 L89.6299823,58.1463244 L83.1221948,59.1160829 Z M82.6576364,58.0434112 L82.8601362,59.4644043 L89.9793937,58.4036072 L89.7768939,56.9667814 L82.6576364,58.0434112 Z" id="Fill-249" fill="#FFFFFF"></path>
                    <path d="M89.2448356,54.5028031 L82.4352837,55.5675584 L82.5305777,56.1256643 C82.5782247,56.4027381 82.6179306,56.6837702 82.6179306,56.6837702 L89.4274825,55.6308895 C89.4274825,55.6308895 89.3877766,55.3498575 89.336159,55.0688254 L89.2448356,54.5028031 Z" id="Fill-251" fill="#FFFFFF"></path>
                    <path d="M82.750151,56.5048597 C82.7342687,56.3979883 82.7104452,56.2475768 82.6826511,56.0971653 L82.6151512,55.6934291 L89.1189681,54.6801304 L89.186468,55.0957412 C89.2142621,55.2461527 89.2380856,55.3965642 89.2539679,55.5034356 L82.750151,56.5048597 Z M89.4882324,55.0403264 L89.3691149,54.3278508 L82.2577986,55.4401044 L82.3769161,56.15258 C82.4285337,56.4256957 82.4682396,56.7027696 82.4682396,56.7027696 L82.4880925,56.8571393 L89.6033794,55.7607184 L89.5835264,55.6103069 C89.5835264,55.6103069 89.5438206,55.3253167 89.4882324,55.0403264 L89.4882324,55.0403264 Z" id="Fill-253" fill="#FFFFFF"></path>
                    <polygon id="Fill-255" fill="#FFFFFF" points="75.1270264 53.6735606 75.3732027 55.1380939 88.9803947 52.9650432 88.7302479 51.4609279"></polygon>
                    <path d="M75.5030408,54.9607666 L75.3045116,53.8010146 L88.601998,51.6398385 L88.8084684,52.8352143 L75.5030408,54.9607666 Z M74.947159,53.5476899 L75.252894,55.3130462 L89.1578798,53.0924972 L88.8521448,51.2836007 L74.947159,53.5476899 Z" id="Fill-257" fill="#FFFFFF"></path>
                    <polygon id="Fill-259" fill="#FFFFFF" points="81.4898876 49.9841243 81.6804757 51.0963779 88.4741452 49.9722497 88.2835572 48.8402051"></polygon>
                    <path d="M81.8039608,50.9194465 L81.668961,50.1080159 L88.1608661,49.0234696 L88.2998366,49.8467748 L81.8039608,50.9194465 Z M81.3116084,49.8586494 L81.553814,51.2756843 L88.6571891,50.0961413 L88.4110129,48.6632736 L81.3116084,49.8586494 Z" id="Fill-261" fill="#FFFFFF"></path>
                    <polygon id="Fill-263" fill="#FFFFFF" points="81.0519322 47.3863589 81.2385496 48.4986126 88.0322192 47.3388606 87.8376606 46.2107741"></polygon>
                    <path d="M81.3660054,48.3216811 L81.2310055,47.5102505 L87.7149695,46.3861223 L87.85394,47.2094275 L81.3660054,48.3216811 Z M80.8736529,47.2569259 L81.1158586,48.6779189 L88.2112925,47.4627522 L87.9651163,46.0298845 L80.8736529,47.2569259 Z" id="Fill-265" fill="#FFFFFF"></path>
                    <polygon id="Fill-267" fill="#FFFFFF" points="80.6096091 44.7870103 80.8001971 45.8992639 87.5819549 44.7038882 87.3913669 43.5758017"></polygon>
                    <path d="M80.9236823,45.7223325 L80.7886824,44.9109019 L87.2647053,43.7551081 L87.4036757,44.5784133 L80.9236823,45.7223325 Z M80.4313299,44.6615354 L80.6735355,46.0785703 L87.7610283,44.8277797 L87.5148521,43.3949121 L80.4313299,44.6615354 Z" id="Fill-269" fill="#FFFFFF"></path>
                    <path d="M86.9184703,40.9447875 L80.1446537,42.1916199 C80.1446537,42.1916199 80.2002419,42.4686937 80.2518595,42.7497258 C80.3114182,43.0228415 80.3590652,43.3038735 80.3590652,43.3038735 L87.1368525,42.0689157 C87.1368525,42.0689157 87.0892054,41.7878837 87.0296467,41.5068516 C86.9740585,41.2258196 86.9184703,40.9447875 86.9184703,40.9447875" id="Fill-271" fill="#FFFFFF"></path>
                    <path d="M80.4817563,43.1229839 C80.4619034,43.0161125 80.4341093,42.865701 80.4023446,42.7152895 L80.3269035,42.3155115 L86.7989557,41.1240939 L86.8783674,41.5397047 C86.9101321,41.6901162 86.9379262,41.8405277 86.9577791,41.9473991 L80.4817563,43.1229839 Z M87.1801318,41.4763735 L87.0411614,40.7638979 L79.9616098,42.0701032 L80.1005802,42.7786206 C80.160139,43.0517363 80.207786,43.3288102 80.207786,43.3288102 L80.2316095,43.4831799 L87.1642495,42.2205147 L87.1483671,42.0621868 L87.283367,42.0186466 C87.2714553,41.9434409 87.2277788,41.7099072 87.1801318,41.4763735 L87.1801318,41.4763735 Z" id="Fill-273" fill="#FFFFFF"></path>
                    <polygon id="Fill-275" fill="#FFFFFF" points="72.7847788 40.4983028 73.0746315 41.9549196 86.6143236 39.4177147 86.3205003 37.9175577"></polygon>
                    <path d="M73.1957343,41.7736342 L72.9654404,40.6178404 L86.1954269,38.0964682 L86.433662,39.291844 L73.1957343,41.7736342 Z M72.6041173,40.3724321 L72.9495581,42.1338302 L86.7989557,39.5412105 L86.4455737,37.7362722 L72.6041173,40.3724321 Z" id="Fill-277" fill="#FFFFFF"></path>
                    <polygon id="Fill-279" fill="#FFFFFF" points="79.0471842 36.6366848 79.2655664 37.7449803 86.0274712 36.4348167 85.8051185 35.3146467"></polygon>
                    <path d="M79.3842868,37.5644864 L79.229434,36.757014 L85.6856039,35.4943489 L85.8444273,36.3136959 L79.3842868,37.5644864 Z M78.8641403,36.515564 L79.1420812,37.9246824 L86.209721,36.5591041 L85.923839,35.1301947 L78.8641403,36.515564 Z" id="Fill-281" fill="#FFFFFF"></path>
                    <polygon id="Fill-283" fill="#FFFFFF" points="78.5353759 34.0527732 78.753758 35.1610686 85.5116923 33.8152813 85.285369 32.6911531"></polygon>
                    <path d="M78.8724785,34.9781999 L78.7176257,34.1707275 L85.1658545,32.8724385 L85.3286484,33.6917855 L78.8724785,34.9781999 Z M78.352332,33.9292774 L78.6302729,35.3423541 L85.6939422,33.9332356 L85.4080601,32.5082843 L78.352332,33.9292774 Z" id="Fill-285" fill="#FFFFFF"></path>
                    <polygon id="Fill-287" fill="#FFFFFF" points="78.0235676 31.4664866 78.2419497 32.574782 84.9919429 31.1933709 84.7656196 30.0692427"></polygon>
                    <path d="M78.3606702,32.3923091 L78.2058174,31.5848367 L84.646105,30.250924 L84.8088989,31.070271 L78.3606702,32.3923091 Z M77.8405237,31.3473448 L78.1184646,32.7564633 L85.1741927,31.3156793 L84.8922812,29.8867698 L77.8405237,31.3473448 Z" id="Fill-289" fill="#FFFFFF"></path>
                    <path d="M84.2276054,27.452478 L77.489524,28.8853457 C77.489524,28.8853457 77.5530534,29.1624195 77.6165827,29.4355352 C77.6840827,29.7126091 77.7277591,29.9896829 77.7277591,29.9896829 L84.4737816,28.572648 C84.4737816,28.572648 84.422164,28.2876578 84.3546641,28.0105839 C84.2951053,27.7335101 84.2276054,27.452478 84.2276054,27.452478" id="Fill-291" fill="#FFFFFF"></path>
                    <path d="M77.8528325,29.8064184 C77.8329796,29.699547 77.8012149,29.5491355 77.7694502,29.4026822 L77.6741562,29.0029042 L84.1104732,27.6373259 L84.2057672,28.0450203 C84.2375319,28.1954318 84.2692965,28.3458433 84.2931201,28.4527146 L77.8528325,29.8064184 Z M84.3447376,27.2692134 L77.3009213,28.7693705 L77.4637152,29.4739297 C77.5312152,29.7430872 77.5788622,30.0162029 77.5788622,30.0162029 L77.6066563,30.1745308 L84.5551786,28.7099975 L84.5909139,28.6664573 C84.6385609,28.6070844 84.6544432,28.5912516 84.5075316,27.9777309 L84.3447376,27.2692134 Z" id="Fill-293" fill="#FFFFFF"></path>
                    <polygon id="Fill-295" fill="#FFFFFF" points="70.0859728 27.3942925 70.4155312 28.842993 83.8837528 25.9297592 83.5462532 24.4414768"></polygon>
                    <path d="M70.5318694,28.6581451 L70.2737814,27.5102677 L83.4243562,24.6247414 L83.694356,25.8122008 L70.5318694,28.6581451 Z M69.9005465,27.276734 L70.2976049,29.0222993 L84.0675909,26.0496926 L83.6625913,24.256629 L69.9005465,27.276734 Z" id="Fill-297" fill="#FFFFFF"></path>
                    <polygon id="Fill-299" fill="#FFFFFF" points="76.23204 23.3628678 76.4821868 24.4632469 83.2083565 22.967048 82.9542391 21.8508362"></polygon>
                    <path d="M76.6005102,24.280774 L76.4178634,23.481218 L82.8343274,22.0364757 L83.0209449,22.8518645 L76.6005102,24.280774 Z M76.048599,23.2476843 L76.3662458,24.6488864 L83.3941798,23.0853982 L83.0725625,21.6644051 L76.048599,23.2476843 Z" id="Fill-301" fill="#FFFFFF"></path>
                    <polygon id="Fill-303" fill="#FFFFFF" points="75.6463789 20.7939973 75.8965257 21.8943764 82.6147541 20.3625538 82.3606367 19.2423837"></polygon>
                    <path d="M76.0148491,21.7103202 L75.8322022,20.906806 L82.2407251,19.4303981 L82.4273425,20.2457869 L76.0148491,21.7103202 Z M75.4629379,20.6772305 L75.7805846,22.0784326 L82.8005775,20.4753624 L82.4789601,19.0583275 L75.4629379,20.6772305 Z" id="Fill-305" fill="#FFFFFF"></path>
                    <polygon id="Fill-307" fill="#FFFFFF" points="75.0646883 18.2235436 75.3108645 19.3239226 82.0211518 17.7564762 81.7670344 16.6363062"></polygon>
                    <path d="M75.4291879,19.1398664 L75.246541,18.3363522 L81.6471227,16.8243206 L81.8337402,17.6397094 L75.4291879,19.1398664 Z M74.8772767,18.1107349 L75.1949234,19.511937 L82.2069751,17.8692848 L81.8853578,16.45225 L74.8772767,18.1107349 Z" id="Fill-309" fill="#FFFFFF"></path>
                    <path d="M81.1603291,14.0353743 L74.4659242,15.6582354 C74.4659242,15.6582354 74.5453359,15.9313511 74.6048946,16.2044668 C74.6644534,16.4815406 74.7279827,16.7546563 74.7279827,16.7546563 L81.4263583,15.1476279 C81.4263583,15.1476279 81.3667995,14.870554 81.2992996,14.589522 C81.2397408,14.3084899 81.1603291,14.0353743 81.1603291,14.0353743" id="Fill-311" fill="#FFFFFF"></path>
                    <path d="M74.8439238,16.5694126 L74.7565709,16.1696346 C74.7248063,16.0231813 74.6851004,15.876728 74.6573063,15.7698566 L81.0499469,14.218243 C81.077741,14.3251144 81.1174468,14.4755259 81.1492115,14.6259374 L81.2405349,15.0336318 L74.8439238,16.5694126 Z M81.3120054,13.9926257 L81.2722996,13.8501306 L74.2761303,15.5442393 L74.3198067,15.6986091 C74.3198067,15.6986091 74.3952478,15.9677665 74.450836,16.2408822 L74.6096593,16.9414832 L81.6137698,15.2632073 L81.4509759,14.558648 C81.3874465,14.2736578 81.3120054,13.9926257 81.3120054,13.9926257 L81.3120054,13.9926257 Z" id="Fill-313" fill="#FFFFFF"></path>
                    <polygon id="Fill-315" fill="#FFFFFF" points="67.0190935 14.3738002 67.3923284 15.8106261 80.7731972 12.5253217 80.3880505 11.0449557"></polygon>
                    <path d="M67.5035048,15.626174 L67.2096816,14.486213 L80.2768741,11.2325743 L80.5826091,12.4121173 L67.5035048,15.626174 Z M66.8324761,14.2645539 L67.2811521,15.9982447 L80.9598146,12.6377346 L80.4992269,10.8565455 L66.8324761,14.2645539 Z" id="Fill-317" fill="#FFFFFF"></path>
                    <polygon id="Fill-319" fill="#FFFFFF" points="73.0484256 10.1737563 73.3303371 11.266219 80.0088597 9.58002661 79.7229776 8.47173117"></polygon>
                    <path d="M73.4403223,11.0782045 L73.2338519,10.2826068 L79.6145807,8.65974557 L79.8210511,9.47117616 L73.4403223,11.0782045 Z M72.860617,10.0609477 L73.2179696,11.4542334 L80.1982566,9.69283525 L79.8329628,8.28371676 L72.860617,10.0609477 Z" id="Fill-321" fill="#FFFFFF"></path>
                    <polygon id="Fill-323" fill="#FFFFFF" points="72.3893086 7.6207186 72.6712201 8.71318125 79.337831 6.99136512 79.0519489 5.88306968"></polygon>
                    <path d="M72.7808082,8.52714594 L72.5743379,7.73154814 L78.9431549,6.06910499 L79.1496253,6.88053557 L72.7808082,8.52714594 Z M72.201103,7.50988906 L72.5584555,8.90317475 L79.5268308,7.10219466 L79.161537,5.69307618 L72.201103,7.50988906 Z" id="Fill-325" fill="#FFFFFF"></path>
                    <polygon id="Fill-327" fill="#FFFFFF" points="71.7262211 5.06965999 72.0081326 6.16212264 78.6707728 4.40468273 78.3848908 3.29242909"></polygon>
                    <path d="M72.1216913,5.97410823 L71.9152209,5.17851044 L78.2721262,3.48440169 L78.4825671,4.29187409 L72.1216913,5.97410823 Z M71.541986,4.96080955 L71.8993386,6.35409524 L78.8558021,4.51353317 L78.4905083,3.10441469 L71.541986,4.96080955 Z" id="Fill-329" fill="#FFFFFF"></path>
                    <polygon id="Fill-331" fill="#FFFFFF" points="71.0671041 2.51820556 71.3490156 3.61066821 77.9997441 1.81364632 77.713862 0.705350883"></polygon>
                    <g id="Group-335" transform="translate(70.448385, 0.000000)">
                        <mask id="mask-2" fill="white">
                            <use xlink:href="#path-1"></use>
                        </mask>
                        <g id="Clip-334"></g>
                        <path d="M1.01021883,3.42304963 L0.803748454,2.62745183 L7.15271258,0.893761107 L7.36315354,1.7051917 L1.01021883,3.42304963 Z M0.43051354,2.40975094 L0.787866117,3.80303663 L7.73638845,1.92289259 L7.37506529,0.5137741 L0.43051354,2.40975094 Z" id="Fill-333" fill="#FFFFFF" mask="url(#mask-2)"></path>
                    </g>
                    <path d="M45.293248,11.9462374 L44.7135427,11.9462374 C44.3641313,12.1718547 43.7089849,12.4687195 43.1848678,12.638922 L43.288103,13.3355649 C43.593838,13.2445263 44.1497198,13.0387 44.4633959,12.8764139 L44.4633959,17.2066825 L43.0458973,17.2066825 L43.0458973,17.9547819 L46.5598644,17.9547819 L46.5598644,17.2066825 L45.293248,17.2066825 L45.293248,11.9462374 Z" id="Fill-336" fill="#FFFFFF"></path>
                    <path d="M49.7911258,14.1283919 C49.4417144,14.1283919 49.2392146,14.1600575 49.0645089,14.1917231 L49.2789204,12.7746882 L51.784359,12.7746882 L51.8478884,11.9988814 L48.7111269,11.9988814 L48.2584803,14.76962 L48.2584803,15.0269029 C48.5840682,14.9437807 48.9850972,14.8646167 49.5171555,14.8646167 C50.9584775,14.8646167 51.2642125,15.5770924 51.2642125,16.1074909 C51.2642125,16.6141403 50.9981834,17.2672429 49.8665669,17.2672429 C49.2153911,17.2672429 48.6356858,17.0337093 48.1552451,16.669555 L47.8812748,17.4532782 C48.3498037,17.8095161 49.0049501,18.0430497 49.8030375,18.0430497 C51.2959772,18.0430497 52.1139175,17.20787 52.1139175,16.0243688 C52.1139175,15.0150283 51.4587711,14.1283919 49.7911258,14.1283919" id="Fill-338" fill="#FFFFFF"></path>
                    <path d="M55.2621937,17.2902005 C54.333077,17.2902005 53.8327834,16.300651 53.8327834,14.9350727 C53.8327834,13.4665812 54.4124887,12.6511924 55.1986644,12.6511924 C56.0682223,12.6511924 56.5804277,13.4982468 56.5804277,14.9548637 C56.5804277,16.2689854 56.1714575,17.2902005 55.2621937,17.2902005 M55.2304291,11.8951766 C53.8685187,11.8951766 52.9910196,13.0984688 52.9910196,14.9548637 C52.9910196,16.7993839 53.8208717,18.0541327 55.2423408,18.0541327 C56.7352805,18.0541327 57.4499856,16.6370978 57.4499856,14.9548637 C57.4499856,13.3953337 56.8345451,11.8951766 55.2304291,11.8951766" id="Fill-340" fill="#FFFFFF"></path>
                    <path d="M60.4660414,17.2902005 C59.5369247,17.2902005 59.0366311,16.300651 59.0366311,14.9350727 C59.0366311,13.4665812 59.6163364,12.6511924 60.402512,12.6511924 C61.2760405,12.6511924 61.7842753,13.4982468 61.7842753,14.9548637 C61.7842753,16.2689854 61.3753052,17.2902005 60.4660414,17.2902005 M60.4342767,11.8951766 C59.0723663,11.8951766 58.1988378,13.0984688 58.1988378,14.9548637 C58.1988378,16.7993839 59.0247193,18.0541327 60.4461885,18.0541327 C61.9391281,18.0541327 62.6578038,16.6370978 62.6578038,14.9548637 C62.6578038,13.3953337 62.0383927,11.8951766 60.4342767,11.8951766" id="Fill-342" fill="#FFFFFF"></path>
                    <path d="M42.2184276,246.830852 L41.6387223,246.830852 C41.2893109,247.056469 40.6341645,247.349376 40.114018,247.523537 L40.2132826,248.22018 C40.5190176,248.125183 41.0748994,247.919356 41.3885755,247.75707 L41.3885755,252.091297 L39.9710769,252.091297 L39.9710769,252.835438 L43.485044,252.835438 L43.485044,252.091297 L42.2184276,252.091297 L42.2184276,246.830852 Z" id="Fill-344" fill="#FFFFFF"></path>
                    <path d="M46.9839227,252.172836 C46.054806,252.172836 45.5505419,251.183287 45.5505419,249.81375 C45.5505419,248.349217 46.1342177,247.533828 46.9203934,247.533828 C47.7899513,247.533828 48.3021567,248.380882 48.3021567,249.837499 C48.3021567,251.151621 47.8931865,252.172836 46.9839227,252.172836 M46.9521581,246.78177 C45.5902477,246.78177 44.7127486,247.981104 44.7127486,249.837499 C44.7127486,251.682019 45.5426007,252.93281 46.9600992,252.93281 C48.4570095,252.93281 49.1717146,251.519733 49.1717146,249.837499 C49.1717146,248.277969 48.5562741,246.78177 46.9521581,246.78177" id="Fill-346" fill="#FFFFFF"></path>
                    <path d="M51.919756,249.011027 C51.5743151,249.011027 51.3678448,249.042693 51.1931391,249.074359 L51.4115212,247.653366 L53.9169598,247.653366 L53.9804892,246.881517 L50.8397571,246.881517 L50.3871105,249.652256 L50.3871105,249.909538 C50.7126984,249.826416 51.1137274,249.747252 51.6457856,249.747252 C53.0871077,249.747252 53.3928427,250.45577 53.3928427,250.990126 C53.3928427,251.500734 53.1307841,252.149878 51.9951971,252.149878 C51.3479918,252.149878 50.764316,251.916345 50.2878459,251.552191 L50.009905,252.335914 C50.4824045,252.692152 51.1335803,252.925685 51.9316677,252.925685 C53.4246074,252.925685 54.2425477,252.090506 54.2425477,250.907004 C54.2425477,249.901622 53.5874013,249.011027 51.919756,249.011027" id="Fill-348" fill="#FFFFFF"></path>
                    <path d="M57.391221,252.172836 C56.4621043,252.172836 55.9618107,251.183287 55.9618107,249.81375 C55.9618107,248.349217 56.5454865,247.533828 57.3316622,247.533828 C58.2012202,247.533828 58.7094549,248.380882 58.7094549,249.837499 C58.7094549,251.151621 58.3004848,252.172836 57.391221,252.172836 M57.3594563,246.78177 C56.0015165,246.78177 55.1240174,247.981104 55.1240174,249.837499 C55.1240174,251.682019 55.9498989,252.93281 57.3713681,252.93281 C58.8643077,252.93281 59.5829835,251.519733 59.5829835,249.837499 C59.5829835,248.277969 58.9675429,246.78177 57.3594563,246.78177" id="Fill-350" fill="#FFFFFF"></path>
                    <path d="M62.5986421,252.172836 C61.6695254,252.172836 61.1652613,251.183287 61.1652613,249.81375 C61.1652613,248.349217 61.7489371,247.533828 62.5351128,247.533828 C63.4046707,247.533828 63.9168761,248.380882 63.9168761,249.837499 C63.9168761,251.151621 63.5079059,252.172836 62.5986421,252.172836 M62.5668775,246.78177 C61.2049671,246.78177 60.327468,247.981104 60.327468,249.837499 C60.327468,251.682019 61.1573201,252.93281 62.5748186,252.93281 C64.0717289,252.93281 64.786434,251.519733 64.786434,249.837499 C64.786434,248.277969 64.1709935,246.78177 62.5668775,246.78177" id="Fill-352" fill="#FFFFFF"></path>
                    <path d="M36.8946683,271.534757 L36.3109924,271.534757 C35.9655516,271.760375 35.3104052,272.053281 34.7862881,272.227442 L34.8855527,272.924085 C35.1952583,272.829088 35.7471695,272.623262 36.0648162,272.460976 L36.0648162,276.795202 L34.6433471,276.795202 L34.6433471,277.539344 L38.1573141,277.539344 L38.1573141,276.795202 L36.8946683,276.795202 L36.8946683,271.534757 Z" id="Fill-354" fill="#FFFFFF"></path>
                    <path d="M42.0981189,271.534757 L41.5184136,271.534757 C41.1690022,271.760375 40.5138558,272.053281 39.9897387,272.227442 L40.0929739,272.924085 C40.3987089,272.829088 40.9506201,272.623262 41.2682668,272.460976 L41.2682668,276.795202 L39.8467977,276.795202 L39.8467977,277.539344 L43.3647353,277.539344 L43.3647353,276.795202 L42.0981189,276.795202 L42.0981189,271.534757 Z" id="Fill-356" fill="#FFFFFF"></path>
                    <path d="M46.5959967,273.714933 C46.2465853,273.714933 46.0401149,273.750557 45.8693798,273.778264 L46.0837913,272.361229 L48.5892299,272.361229 L48.6527593,271.58938 L45.5120272,271.58938 L45.0593806,274.360119 L45.0593806,274.617402 C45.3889391,274.530322 45.7899681,274.451158 46.3220264,274.451158 C47.7633484,274.451158 48.0690834,275.163633 48.0690834,275.694032 C48.0690834,276.204639 47.8030543,276.857742 46.6674672,276.857742 C46.020262,276.857742 45.4405567,276.62025 44.960116,276.256096 L44.6861457,277.039819 C45.1546746,277.400015 45.809821,277.629591 46.6079084,277.629591 C48.1008481,277.629591 48.9187884,276.794411 48.9187884,275.61091 C48.9187884,274.605527 48.263642,273.714933 46.5959967,273.714933" id="Fill-358" fill="#FFFFFF"></path>
                    <path d="M52.0674617,276.876741 C51.138345,276.876741 50.6380514,275.887192 50.6380514,274.521614 C50.6380514,273.053122 51.2177567,272.237733 52.0039323,272.237733 C52.8734903,272.237733 53.3856956,273.084788 53.3856956,274.541405 C53.3856956,275.855526 52.9767255,276.876741 52.0674617,276.876741 M52.035697,271.485676 C50.6737866,271.485676 49.7962875,272.68501 49.7962875,274.541405 C49.7962875,276.389883 50.6261396,277.640674 52.0476088,277.640674 C53.5405484,277.640674 54.2552536,276.223639 54.2552536,274.541405 C54.2552536,272.985833 53.639813,271.485676 52.035697,271.485676" id="Fill-360" fill="#FFFFFF"></path>
                    <path d="M57.2709123,276.876741 C56.3417956,276.876741 55.841502,275.887192 55.841502,274.521614 C55.841502,273.053122 56.4212073,272.237733 57.2073829,272.237733 C58.0809115,272.237733 58.5891462,273.084788 58.5891462,274.541405 C58.5891462,275.855526 58.1801761,276.876741 57.2709123,276.876741 M57.2391476,271.485676 C55.8772372,271.485676 54.9997381,272.68501 54.9997381,274.541405 C54.9997381,276.389883 55.8295902,277.640674 57.2510594,277.640674 C58.743999,277.640674 59.4626747,276.223639 59.4626747,274.541405 C59.4626747,272.985833 58.8432636,271.485676 57.2391476,271.485676" id="Fill-362" fill="#FFFFFF"></path>
                    <path d="M48.507833,43.269833 C49.6116554,42.4623606 50.9934187,41.2590684 50.9934187,39.9251557 C50.9934187,38.9553972 50.4812133,37.9460567 49.0001854,37.9460567 C48.1822451,37.9460567 47.5707751,38.2627126 47.0903344,38.6189504 L47.3960694,39.3235096 C47.8129807,38.9989374 48.2735685,38.7416545 48.9009208,38.7416545 C49.7466552,38.7416545 50.1238607,39.2839276 50.1238607,40.0161943 C50.1238607,41.0255348 49.0120972,42.0982064 47.7454808,42.9927592 L47.0903344,43.4637847 L47.0903344,44.0020996 L51.3110654,44.0020996 L51.3110654,43.2381674 L50.0126844,43.2381674 C49.3495968,43.2381674 48.9485678,43.250042 48.507833,43.269833" id="Fill-364" fill="#FFFFFF"></path>
                    <path d="M54.1960919,40.179272 C53.8466805,40.179272 53.6402101,40.2109376 53.469475,40.2426032 L53.6838865,38.8255683 L56.1893251,38.8255683 L56.2528545,38.0497615 L53.1121224,38.0497615 L52.6594758,40.8244583 L52.6594758,41.077783 C52.9850637,40.9946608 53.3860927,40.9154969 53.918151,40.9154969 C55.359473,40.9154969 55.665208,41.6279725 55.665208,42.158371 C55.665208,42.6689786 55.4031495,43.318123 54.2675624,43.318123 C53.6203572,43.318123 53.0406519,43.0845894 52.5602112,42.7204351 L52.2822703,43.5041583 C52.7547698,43.8603962 53.4059456,44.0939298 54.204033,44.0939298 C55.6969727,44.0939298 56.514913,43.2587501 56.514913,42.0752489 C56.514913,41.0659084 55.8597667,40.179272 54.1960919,40.179272" id="Fill-366" fill="#FFFFFF"></path>
                    <path d="M59.6631893,43.3391015 C58.7340725,43.3391015 58.2337789,42.349552 58.2337789,40.9839737 C58.2337789,39.5194404 58.8174548,38.7000934 59.6036305,38.7000934 C60.4731884,38.7000934 60.9853938,39.5471478 60.9853938,41.0077229 C60.9853938,42.3218446 60.572453,43.3391015 59.6631893,43.3391015 M59.6314246,37.9480358 C58.2734848,37.9480358 57.3959857,39.151328 57.3959857,41.0077229 C57.3959857,42.8482849 58.2258378,44.1030337 59.6433363,44.1030337 C61.136276,44.1030337 61.8549517,42.6859988 61.8549517,41.0077229 C61.8549517,39.4442347 61.2355406,37.9480358 59.6314246,37.9480358" id="Fill-368" fill="#FFFFFF"></path>
                    <path d="M64.8710075,43.3391015 C63.9418908,43.3391015 63.4376266,42.349552 63.4376266,40.9839737 C63.4376266,39.5194404 64.0213025,38.7000934 64.8074781,38.7000934 C65.6770361,38.7000934 66.1892414,39.5471478 66.1892414,41.0077229 C66.1892414,42.3218446 65.7802713,43.3391015 64.8710075,43.3391015 M64.8392428,37.9480358 C63.4773324,37.9480358 62.5998333,39.151328 62.5998333,41.0077229 C62.5998333,42.8482849 63.4296854,44.1030337 64.8511546,44.1030337 C66.3440942,44.1030337 67.0587994,42.6859988 67.0587994,41.0077229 C67.0587994,39.4442347 66.4433588,37.9480358 64.8392428,37.9480358" id="Fill-370" fill="#FFFFFF"></path>
                    <path d="M54.448224,67.4690681 L54.448224,67.4492771 C54.9604293,67.306782 55.4607229,66.8595056 55.4607229,66.1351554 C55.4607229,65.2762264 54.8651353,64.5637508 53.5389602,64.5637508 C52.681314,64.5637508 52.1055793,64.848741 51.688668,65.1020657 L51.9308736,65.8184995 C52.3517555,65.5137183 52.8321962,65.327683 53.4555779,65.327683 C54.3569005,65.327683 54.6427826,65.8066249 54.6427826,66.2459849 C54.6427826,66.7565925 54.2536653,67.1444959 53.3126369,67.1444959 L52.6574905,67.1444959 L52.6574905,67.9203027 L53.3563133,67.9203027 C54.4164593,67.9203027 54.8651353,68.38737 54.8651353,68.9494341 C54.8651353,69.4362925 54.5594003,69.9389836 53.4992544,69.9389836 C52.844108,69.9389836 52.2882262,69.7133664 51.8077855,69.3452539 L51.5139623,70.1210608 C51.9626383,70.445633 52.58602,70.6989577 53.531019,70.7108323 C54.8770471,70.7108323 55.7267521,69.986482 55.7267521,68.9494341 C55.7267521,68.0430068 55.0596939,67.6115632 54.448224,67.4690681" id="Fill-372" fill="#FFFFFF"></path>
                    <path d="M58.6395726,66.7965703 C58.2901612,66.7965703 58.0876614,66.8282358 57.9129557,66.8599014 L58.1273673,65.4428665 L60.6328059,65.4428665 L60.6963353,64.6670597 L57.5595737,64.6670597 L57.1069271,67.4417565 L57.1069271,67.6950812 C57.4325151,67.611959 57.8335441,67.5327951 58.3656023,67.5327951 C59.8069244,67.5327951 60.1126594,68.2452707 60.1126594,68.7756693 C60.1126594,69.2823186 59.8466302,69.9354213 58.7110432,69.9354213 C58.0678085,69.9354213 57.4841326,69.7018876 57.003692,69.3377334 L56.7297216,70.1214566 C57.1982506,70.4776944 57.853397,70.7112281 58.6514844,70.7112281 C60.1444241,70.7112281 60.9623644,69.8760483 60.9623644,68.6925471 C60.9623644,67.6832066 60.307218,66.7965703 58.6395726,66.7965703" id="Fill-374" fill="#FFFFFF"></path>
                    <path d="M64.1110377,69.9567955 C63.181921,69.9567955 62.6816274,68.967246 62.6816274,67.6016677 C62.6816274,66.1371345 63.2613326,65.3177875 64.0475083,65.3177875 C64.9170663,65.3177875 65.4292716,66.1648419 65.4292716,67.6254169 C65.4292716,68.9395387 65.0203014,69.9567955 64.1110377,69.9567955 M64.079273,64.5657299 C62.7173626,64.5657299 61.8398635,65.7690221 61.8398635,67.6254169 C61.8398635,69.465979 62.6697156,70.7207278 64.0911847,70.7207278 C65.5841244,70.7207278 66.2988296,69.3036929 66.2988296,67.6254169 C66.2988296,66.0658869 65.683389,64.5657299 64.079273,64.5657299" id="Fill-376" fill="#FFFFFF"></path>
                    <path d="M69.3144882,69.9567955 C68.3853715,69.9567955 67.8850779,68.967246 67.8850779,67.6016677 C67.8850779,66.1371345 68.4647832,65.3177875 69.2509589,65.3177875 C70.1205168,65.3177875 70.6327222,66.1648419 70.6327222,67.6254169 C70.6327222,68.9395387 70.223752,69.9567955 69.3144882,69.9567955 M69.2827236,64.5657299 C67.9208132,64.5657299 67.0472847,65.7690221 67.0472847,67.6254169 C67.0472847,69.465979 67.8731662,70.7207278 69.2946353,70.7207278 C70.787575,70.7207278 71.5062507,69.3036929 71.5062507,67.6254169 C71.5062507,66.0658869 70.8868396,64.5657299 69.2827236,64.5657299" id="Fill-378" fill="#FFFFFF"></path>
                    <path d="M51.4468594,225.861111 C50.5773014,225.861111 50.1603901,225.271339 50.1603901,224.578655 C50.1603901,223.893886 50.6090661,223.331822 51.4190653,223.331822 C52.3561232,223.331822 52.796858,224.190751 52.8286227,225.13676 C52.5308289,225.564246 52.1020058,225.861111 51.4468594,225.861111 M51.4905358,222.56789 C50.1167137,222.56789 49.3424498,223.549523 49.3424498,224.61032 C49.3424498,225.789863 50.0293608,226.625043 51.2959772,226.625043 C51.9392118,226.625043 52.4593584,226.351927 52.8286227,225.924442 C52.6022994,226.981281 51.8399472,227.939165 50.2596547,227.939165 C50.180243,227.939165 49.9856844,227.92729 49.9023021,227.911457 L49.9023021,228.699139 C50.0571549,228.71893 50.2398018,228.726846 50.3668605,228.726846 C52.0940646,228.726846 53.6584748,227.586885 53.6584748,225.330712 C53.6584748,223.648478 52.8524462,222.56789 51.4905358,222.56789" id="Fill-380" fill="#FFFFFF"></path>
                    <path d="M56.5109425,224.801897 C56.1615311,224.801897 55.9550607,224.833562 55.7843256,224.865228 L55.9987371,223.444235 L58.5041757,223.444235 L58.5677051,222.672386 L55.426973,222.672386 L54.9743264,225.443125 L54.9743264,225.700408 C55.3038849,225.617286 55.7009433,225.538122 56.2330016,225.538122 C57.6743236,225.538122 57.9800586,226.246639 57.9800586,226.780996 C57.9800586,227.287645 57.7180001,227.940748 56.582413,227.940748 C55.9352078,227.940748 55.3515319,227.703256 54.8750618,227.339102 L54.6010915,228.126783 C55.0696204,228.483021 55.7247668,228.716555 56.5188836,228.716555 C58.0118233,228.716555 58.8297636,227.877417 58.8297636,226.697874 C58.8297636,225.688533 58.1785878,224.801897 56.5109425,224.801897" id="Fill-382" fill="#FFFFFF"></path>
                    <path d="M61.9780398,227.963705 C61.0489231,227.963705 60.5486295,226.974156 60.5486295,225.604619 C60.5486295,224.136128 61.1323054,223.320739 61.9184811,223.320739 C62.788039,223.320739 63.3002444,224.167794 63.3002444,225.628369 C63.3002444,226.94249 62.8873036,227.963705 61.9780398,227.963705 M61.9502457,222.568682 C60.5883354,222.568682 59.7108363,223.768016 59.7108363,225.628369 C59.7108363,227.472889 60.5406884,228.723679 61.9581869,228.723679 C63.4511266,228.723679 64.1698023,227.310603 64.1698023,225.628369 C64.1698023,224.068839 63.5543618,222.568682 61.9502457,222.568682" id="Fill-384" fill="#FFFFFF"></path>
                    <path d="M67.1858581,227.963705 C66.2567414,227.963705 65.7524772,226.974156 65.7524772,225.604619 C65.7524772,224.136128 66.336153,223.320739 67.1223287,223.320739 C67.9918867,223.320739 68.504092,224.167794 68.504092,225.628369 C68.504092,226.94249 68.0951218,227.963705 67.1858581,227.963705 M67.1540934,222.568682 C65.792183,222.568682 64.9146839,223.768016 64.9146839,225.628369 C64.9146839,227.472889 65.744536,228.723679 67.1660051,228.723679 C68.6589448,228.723679 69.37365,227.310603 69.37365,225.628369 C69.37365,224.068839 68.7582094,222.568682 67.1540934,222.568682" id="Fill-386" fill="#FFFFFF"></path>
                    <path d="M53.680313,201.648022 C52.7909021,201.648022 52.381932,201.137414 52.381932,200.567434 C52.381932,200.00537 52.7789904,199.550177 53.6286954,199.550177 C54.4664887,199.550177 54.9270764,199.977662 54.9270764,200.599099 C54.9270764,201.109707 54.6014885,201.648022 53.680313,201.648022 M52.5367847,197.856068 C52.5367847,197.408792 52.8504609,196.969432 53.6167836,196.969432 C54.3989887,196.969432 54.7364884,197.377126 54.7364884,197.89565 C54.7364884,198.394383 54.4585475,198.794161 53.6485483,198.794161 C52.9417843,198.794161 52.5367847,198.406258 52.5367847,197.856068 M54.6610473,199.138524 C55.1732526,198.92874 55.5306052,198.509171 55.5306052,197.804612 C55.5306052,197.040679 55.0104587,196.233207 53.6684012,196.233207 C52.3303144,196.233207 51.7267856,197.020888 51.7267856,197.836277 C51.7267856,198.437923 52.0563441,198.956447 52.6559023,199.189981 C51.980903,199.403724 51.5322269,199.914331 51.5322269,200.630765 C51.5322269,201.505527 52.1556087,202.392163 53.6088425,202.392163 C55.0620763,202.392163 55.7648697,201.584691 55.7648697,200.587225 C55.7648697,199.862875 55.3161937,199.336434 54.6610473,199.138524" id="Fill-388" fill="#FFFFFF"></path>
                    <path d="M58.6395726,198.466818 C58.2901612,198.466818 58.0876614,198.498484 57.9129557,198.530149 L58.1273673,197.113114 L60.6328059,197.113114 L60.6963353,196.337308 L57.5595737,196.337308 L57.1069271,199.112004 L57.1069271,199.365329 C57.4325151,199.286165 57.8335441,199.203043 58.3656023,199.203043 C59.8069244,199.203043 60.1126594,199.915519 60.1126594,200.445917 C60.1126594,200.952567 59.8466302,201.605669 58.7110432,201.605669 C58.0678085,201.605669 57.4841326,201.372136 57.003692,201.007981 L56.7297216,201.791705 C57.1982506,202.147942 57.853397,202.381476 58.6514844,202.381476 C60.1444241,202.381476 60.9623644,201.546296 60.9623644,200.362795 C60.9623644,199.353455 60.307218,198.466818 58.6395726,198.466818" id="Fill-390" fill="#FFFFFF"></path>
                    <path d="M64.1110377,201.626648 C63.181921,201.626648 62.6816274,200.637098 62.6816274,199.27152 C62.6816274,197.806987 63.2613326,196.991598 64.0475083,196.991598 C64.9170663,196.991598 65.4292716,197.834694 65.4292716,199.295269 C65.4292716,200.609391 65.0203014,201.626648 64.1110377,201.626648 M64.079273,196.235582 C62.7173626,196.235582 61.8398635,197.438874 61.8398635,199.295269 C61.8398635,201.135831 62.6697156,202.394538 64.0911847,202.394538 C65.5841244,202.394538 66.2988296,200.973545 66.2988296,199.295269 C66.2988296,197.735739 65.683389,196.235582 64.079273,196.235582" id="Fill-392" fill="#FFFFFF"></path>
                    <path d="M69.3144882,201.626648 C68.3853715,201.626648 67.8850779,200.637098 67.8850779,199.27152 C67.8850779,197.806987 68.4647832,196.991598 69.2509589,196.991598 C70.1205168,196.991598 70.6327222,197.834694 70.6327222,199.295269 C70.6327222,200.609391 70.223752,201.626648 69.3144882,201.626648 M69.2827236,196.235582 C67.9208132,196.235582 67.0472847,197.438874 67.0472847,199.295269 C67.0472847,201.135831 67.8731662,202.394538 69.2946353,202.394538 C70.787575,202.394538 71.5062507,200.973545 71.5062507,199.295269 C71.5062507,197.735739 70.8868396,196.235582 69.2827236,196.235582" id="Fill-394" fill="#FFFFFF"></path>
                    <path d="M56.5264277,93.4894701 L56.5264277,94.4592286 L54.604665,94.4592286 C54.8468706,94.1227818 56.2206928,92.1713901 56.5581924,91.7043228 L56.5661336,91.7043228 C56.5462807,92.009104 56.5264277,92.7057469 56.5264277,93.4894701 L56.5264277,93.4894701 Z M57.3126034,90.80977 L56.4748101,90.80977 C55.9943695,91.3995415 54.1520184,93.968412 53.6834895,94.6215147 L53.6834895,95.2033698 L56.5264277,95.2033698 L56.5264277,96.8103982 L57.3126034,96.8103982 L57.3126034,95.2033698 L58.1940731,95.2033698 L58.1940731,94.4592286 L57.3126034,94.4592286 L57.3126034,90.80977 Z" id="Fill-396" fill="#FFFFFF"></path>
                    <path d="M60.911938,92.988758 C60.5625266,92.988758 60.3600268,93.0204236 60.1853211,93.0520892 L60.3997326,91.6350543 L62.9051712,91.6350543 L62.9687006,90.8592475 L59.8279685,90.8592475 L59.3792925,93.6339443 L59.3792925,93.887269 C59.7048804,93.808105 60.1059094,93.7249829 60.6379677,93.7249829 C62.0792897,93.7249829 62.3850247,94.4374585 62.3850247,94.967857 C62.3850247,95.4784646 62.1189956,96.127609 60.9873791,96.127609 C60.3362033,96.127609 59.756498,95.8940754 59.2760573,95.5299211 L59.002087,96.3136443 C59.4706159,96.6698822 60.1257623,96.9034158 60.9238497,96.9034158 C62.4167894,96.9034158 63.2347297,96.0682361 63.2347297,94.8847349 C63.2347297,93.8753944 62.5795833,92.988758 60.911938,92.988758" id="Fill-398" fill="#FFFFFF"></path>
                    <path d="M66.3830059,96.1505666 C65.4538892,96.1505666 64.9535956,95.1610171 64.9535956,93.7954388 C64.9535956,92.3269473 65.5333009,91.5115585 66.3194766,91.5115585 C67.1890345,91.5115585 67.7012399,92.3586129 67.7012399,93.8152298 C67.7012399,95.1293515 67.2922697,96.1505666 66.3830059,96.1505666 M66.3512413,90.7555427 C64.9893309,90.7555427 64.1118318,91.9588349 64.1118318,93.8152298 C64.1118318,95.65975 64.9416839,96.9144988 66.363153,96.9144988 C67.8560927,96.9144988 68.5707978,95.4974639 68.5707978,93.8152298 C68.5707978,92.2556998 67.9553573,90.7555427 66.3512413,90.7555427" id="Fill-400" fill="#FFFFFF"></path>
                    <path d="M71.5868536,96.1505666 C70.6577369,96.1505666 70.1574433,95.1610171 70.1574433,93.7954388 C70.1574433,92.3269473 70.7371486,91.5115585 71.5233242,91.5115585 C72.3968528,91.5115585 72.9050875,92.3586129 72.9050875,93.8152298 C72.9050875,95.1293515 72.4961174,96.1505666 71.5868536,96.1505666 M71.5550889,90.7555427 C70.1931785,90.7555427 69.31965,91.9588349 69.31965,93.8152298 C69.31965,95.65975 70.1455315,96.9144988 71.5670007,96.9144988 C73.0599403,96.9144988 73.7786161,95.4974639 73.7786161,93.8152298 C73.7786161,92.2556998 73.1592049,90.7555427 71.5550889,90.7555427" id="Fill-402" fill="#FFFFFF"></path>
                    <path d="M53.8470775,171.767981 L57.0751625,171.767981 C56.8329568,172.258798 55.5544287,175.009745 54.5856062,176.949262 L55.4710465,176.949262 C56.1778104,175.520353 57.3769269,172.888151 57.9566322,171.59382 L57.9566322,170.992174 L53.8470775,170.992174 L53.8470775,171.767981 Z" id="Fill-404" fill="#FFFFFF"></path>
                    <path d="M60.911938,173.122872 C60.5625266,173.122872 60.3600268,173.154538 60.1853211,173.186203 L60.3997326,171.769169 L62.9051712,171.769169 L62.9687006,170.993362 L59.8279685,170.993362 L59.3792925,173.768059 L59.3792925,174.021383 C59.7048804,173.942219 60.1059094,173.859097 60.6379677,173.859097 C62.0792897,173.859097 62.3850247,174.571573 62.3850247,175.101971 C62.3850247,175.612579 62.1189956,176.261723 60.9873791,176.261723 C60.3362033,176.261723 59.756498,176.02819 59.2760573,175.664035 L59.002087,176.447759 C59.4706159,176.803996 60.1257623,177.03753 60.9238497,177.03753 C62.4167894,177.03753 63.2347297,176.20235 63.2347297,175.018849 C63.2347297,174.009509 62.5795833,173.122872 60.911938,173.122872" id="Fill-406" fill="#FFFFFF"></path>
                    <path d="M66.3830059,176.285077 C65.4538892,176.285077 64.9535956,175.295527 64.9535956,173.929949 C64.9535956,172.461457 65.5333009,171.646069 66.3194766,171.646069 C67.1890345,171.646069 67.7012399,172.493123 67.7012399,173.94974 C67.7012399,175.263862 67.2922697,176.285077 66.3830059,176.285077 M66.3512413,170.890053 C64.9893309,170.890053 64.1118318,172.093345 64.1118318,173.94974 C64.1118318,175.79426 64.9416839,177.049009 66.363153,177.049009 C67.8560927,177.049009 68.5707978,175.631974 68.5707978,173.94974 C68.5707978,172.39021 67.9553573,170.890053 66.3512413,170.890053" id="Fill-408" fill="#FFFFFF"></path>
                    <path d="M71.5868536,176.285077 C70.6577369,176.285077 70.1574433,175.295527 70.1574433,173.929949 C70.1574433,172.461457 70.7371486,171.646069 71.5233242,171.646069 C72.3968528,171.646069 72.9050875,172.493123 72.9050875,173.94974 C72.9050875,175.263862 72.4961174,176.285077 71.5868536,176.285077 M71.5550889,170.890053 C70.1931785,170.890053 69.31965,172.093345 69.31965,173.94974 C69.31965,175.79426 70.1455315,177.049009 71.5670007,177.049009 C73.0599403,177.049009 73.7786161,175.631974 73.7786161,173.94974 C73.7786161,172.39021 73.1592049,170.890053 71.5550889,170.890053" id="Fill-410" fill="#FFFFFF"></path>
                    <path d="M58.1551614,149.445328 C57.3173681,149.453244 56.745604,148.64973 56.745604,147.711637 C56.9997214,147.284152 57.5516326,146.93583 58.1670731,146.93583 C59.0247193,146.93583 59.4336895,147.497894 59.4336895,148.190579 C59.4336895,148.903055 58.9294253,149.445328 58.1551614,149.445328 M58.3616318,146.191689 C57.7263383,146.191689 57.098986,146.476679 56.745604,146.916039 C56.9242803,145.66129 57.8176617,144.845902 59.199425,144.845902 C59.3542778,144.845902 59.5369247,144.857776 59.6997186,144.889442 L59.7394245,144.113635 C59.6163364,144.081969 59.4535424,144.074053 59.2311897,144.074053 C57.4920738,144.074053 55.9078107,145.214014 55.9078107,147.517685 C55.9078107,149.100964 56.7138393,150.221134 58.1233967,150.221134 C59.5369247,150.221134 60.2516298,149.160337 60.2516298,148.127248 C60.2516298,147.030827 59.6163364,146.191689 58.3616318,146.191689" id="Fill-412" fill="#FFFFFF"></path>
                    <path d="M63.0445387,146.294998 C62.6951273,146.294998 62.488657,146.326663 62.3139513,146.358329 L62.5323334,144.937336 L65.037772,144.937336 L65.1013014,144.161529 L61.9605693,144.161529 L61.5079227,146.936226 L61.5079227,147.193509 C61.8335106,147.110387 62.2345396,147.031223 62.7665979,147.031223 C64.2079199,147.031223 64.5136549,147.743698 64.5136549,148.274097 C64.5136549,148.780746 64.2515963,149.433849 63.1160093,149.433849 C62.468804,149.433849 61.8851282,149.200315 61.4046875,148.832203 L61.1307172,149.619884 C61.6032167,149.976122 62.2583631,150.209656 63.0524799,150.209656 C64.5454196,150.209656 65.3633599,149.374476 65.3633599,148.190975 C65.3633599,147.181634 64.7082135,146.294998 63.0445387,146.294998" id="Fill-414" fill="#FFFFFF"></path>
                    <path d="M68.5120332,149.454827 C67.5829165,149.454827 67.0826229,148.465278 67.0826229,147.0997 C67.0826229,145.631208 67.6623282,144.815819 68.4485038,144.815819 C69.3220324,144.815819 69.8342377,145.662874 69.8342377,147.119491 C69.8342377,148.433612 69.421297,149.454827 68.5120332,149.454827 M68.4802685,144.059803 C67.1223287,144.059803 66.2448296,145.263096 66.2448296,147.119491 C66.2448296,148.964011 67.0707111,150.21876 68.4921803,150.21876 C69.9851199,150.21876 70.7037957,148.801725 70.7037957,147.119491 C70.7037957,145.559961 70.0843845,144.059803 68.4802685,144.059803" id="Fill-416" fill="#FFFFFF"></path>
                    <path d="M73.7194544,149.454827 C72.7903376,149.454827 72.2860735,148.465278 72.2860735,147.0997 C72.2860735,145.631208 72.8697493,144.815819 73.655925,144.815819 C74.5254829,144.815819 75.0376883,145.662874 75.0376883,147.119491 C75.0376883,148.433612 74.6287181,149.454827 73.7194544,149.454827 M73.6876897,144.059803 C72.3257793,144.059803 71.4482802,145.263096 71.4482802,147.119491 C71.4482802,148.964011 72.2781323,150.21876 73.6956308,150.21876 C75.1885705,150.21876 75.9072462,148.801725 75.9072462,147.119491 C75.9072462,145.559961 75.2918057,144.059803 73.6876897,144.059803" id="Fill-418" fill="#FFFFFF"></path>
                    <path d="M57.8371176,119.959919 C57.4916768,119.959919 57.2852064,119.991585 57.1105007,120.02325 L57.3249122,118.606215 L59.8343214,118.606215 L59.8938802,117.830409 L56.7571187,117.830409 L56.3044721,120.605105 L56.3044721,120.85843 C56.63006,120.779266 57.031089,120.696144 57.5631473,120.696144 C59.0044693,120.696144 59.3102043,121.40862 59.3102043,121.939018 C59.3102043,122.449626 59.0481458,123.09877 57.9125587,123.09877 C57.2653535,123.09877 56.6816776,122.865236 56.2012369,122.501082 L55.9272666,123.284805 C56.3957955,123.641043 57.0509419,123.874577 57.8490293,123.874577 C59.341969,123.874577 60.1599093,123.039397 60.1599093,121.855896 C60.1599093,120.850514 59.5047629,119.959919 57.8371176,119.959919" id="Fill-420" fill="#FFFFFF"></path>
                    <path d="M63.0445387,119.959919 C62.6951273,119.959919 62.488657,119.991585 62.3139513,120.02325 L62.5323334,118.606215 L65.037772,118.606215 L65.1013014,117.830409 L61.9605693,117.830409 L61.5079227,120.605105 L61.5079227,120.85843 C61.8335106,120.779266 62.2345396,120.696144 62.7665979,120.696144 C64.2079199,120.696144 64.5136549,121.40862 64.5136549,121.939018 C64.5136549,122.449626 64.2515963,123.09877 63.1160093,123.09877 C62.468804,123.09877 61.8851282,122.865236 61.4046875,122.501082 L61.1307172,123.284805 C61.6032167,123.641043 62.2583631,123.874577 63.0524799,123.874577 C64.5454196,123.874577 65.3633599,123.039397 65.3633599,121.855896 C65.3633599,120.850514 64.7082135,119.959919 63.0445387,119.959919" id="Fill-422" fill="#FFFFFF"></path>
                    <path d="M68.5120332,123.121728 C67.5829165,123.121728 67.0826229,122.132178 67.0826229,120.7666 C67.0826229,119.298108 67.6623282,118.48272 68.4485038,118.48272 C69.3220324,118.48272 69.8342377,119.329774 69.8342377,120.786391 C69.8342377,122.100513 69.421297,123.121728 68.5120332,123.121728 M68.4802685,117.726704 C67.1223287,117.726704 66.2448296,118.929996 66.2448296,120.786391 C66.2448296,122.630911 67.0707111,123.88566 68.4921803,123.88566 C69.9851199,123.88566 70.7037957,122.468625 70.7037957,120.786391 C70.7037957,119.226861 70.0843845,117.726704 68.4802685,117.726704" id="Fill-424" fill="#FFFFFF"></path>
                    <path d="M73.7194544,123.121728 C72.7903376,123.121728 72.2860735,122.132178 72.2860735,120.7666 C72.2860735,119.298108 72.8697493,118.48272 73.655925,118.48272 C74.5254829,118.48272 75.0376883,119.329774 75.0376883,120.786391 C75.0376883,122.100513 74.6287181,123.121728 73.7194544,123.121728 M73.6876897,117.726704 C72.3257793,117.726704 71.4482802,118.929996 71.4482802,120.786391 C71.4482802,122.630911 72.2781323,123.88566 73.6956308,123.88566 C75.1885705,123.88566 75.9072462,122.468625 75.9072462,120.786391 C75.9072462,119.226861 75.2918057,117.726704 73.6876897,117.726704" id="Fill-426" fill="#FFFFFF"></path>
                    <polygon id="Fill-428" fill="#FFFFFF" points="48.0230246 152.67878 35.023332 139.707765 35.023332 139.680057 6.63365501 139.680057 6.63365501 140.538986 34.6421559 140.538986 47.6458191 153.513959 47.6458191 153.53375 76.0354961 153.53375 76.0354961 152.67878"></polygon>
                    <polygon id="Fill-430" fill="#FFFFFF" points="43.9710435 204.125458 30.9713508 191.154443 30.9713508 191.130694 2.58167384 191.130694 2.58167384 191.989623 30.5901747 191.989623 43.593838 204.960638 43.593838 204.984387 71.9835149 204.984387 71.9835149 204.125458"></polygon>
                    <polygon id="Fill-432" fill="#FFFFFF" points="43.5366616 72.4536268 30.5369689 59.482612 30.5369689 59.4469882 6.77302252 59.4667792 6.77302252 60.3257082 30.1438811 60.3059172 43.1554855 73.2888066 43.1554855 73.3125558 71.549133 73.3125558 71.549133 72.4536268"></polygon>
                    <mask id="mask-4" fill="white">
                        <use xlink:href="#path-3"></use>
                    </mask>
                    <g id="Clip-435"></g>
                    <polygon id="Fill-434" fill="#FFFFFF" mask="url(#mask-4)" points="4.19690749 62.4603644 9.35866694 62.4603644 9.35866694 57.314707 4.19690749 57.314707"></polygon>
                    <polygon id="Fill-436" fill="#FFFFFF" mask="url(#mask-4)" points="4.19690749 142.685121 9.35866694 142.685121 9.35866694 137.539464 4.19690749 137.539464"></polygon>
                    <polygon id="Fill-437" fill="#FFFFFF" mask="url(#mask-4)" points="0 194.129821 5.16175945 194.129821 5.16175945 188.984163 0 188.984163"></polygon>
                </g>
            </g>
        </g>
    </g>
</svg>